<svg version="1.1" id="Layer_1" xmlns="http://www.w3.org/2000/svg" x="0" y="0" viewBox="0 0 338.4 54.1" xml:space="preserve"><style>.st0,.st1{fill-rule:evenodd;clip-rule:evenodd;fill:#121212}.st1{fill:#fff}</style><g id="Griffith" transform="translate(0 27.205)"><path id="Fill-1" class="st0" d="M8.6 26.8H6.1v-.4c-.6.3-1.2.4-1.8.4-1.2 0-2.2-.4-3-1.2-.8-.8-1.3-1.8-1.3-3V4.2C0 3 .4 2 1.3 1.2 2.1.4 3.1 0 4.3 0s2.2.4 3 1.2c.8.8 1.3 1.8 1.3 3V6H6.1V4.2c0-.5-.2-.9-.5-1.3-.4-.3-.8-.5-1.3-.5s-1 .2-1.3.5c-.4.4-.6.8-.6 1.3v18.5c0 .5.2.9.5 1.3.4.4.8.5 1.3.5s.9-.2 1.3-.5c.4-.4.5-.8.5-1.3v-7.2H4.3v-2.4h4.3v13.7z"/><path id="Fill-3" class="st0" d="M19.6 10.4V4.2c0-.5-.2-.9-.5-1.3-.4-.4-.8-.5-1.3-.5H16v9.9h1.8c.5 0 .9-.2 1.3-.5.3-.4.5-.9.5-1.4zm2.5 16.4h-2.4V16.4c0-.5-.2-.9-.5-1.3-.4-.3-.8-.5-1.3-.5h-1.8v12.2h-2.4V0H18c1.2 0 2.2.4 3 1.2.8.8 1.3 1.8 1.3 3v6.3c0 1.2-.4 2.2-1.3 3 .9.8 1.3 1.8 1.3 3v10.3z"/><polygon id="Fill-5" class="st0" points="27,26.8 29.4,26.8 29.4,0 27,0"/><polygon id="Fill-7" class="st0" points="41.7,14.6 36.8,14.6 36.8,26.8 34.4,26.8 34.4,0 41.7,0 41.7,2.4 36.8,2.4 36.8,12.2 41.7,12.2"/><polygon id="Fill-8" class="st0" points="52.8,14.6 47.9,14.6 47.9,26.8 45.4,26.8 45.4,0 52.8,0 52.8,2.4 47.9,2.4 47.9,12.2 52.8,12.2"/><polygon id="Fill-9" class="st0" points="56.5,26.8 58.9,26.8 58.9,0 56.5,0"/><polygon id="Fill-10" class="st0" points="70.3,2.4 67.5,2.4 67.5,26.8 65,26.8 65,2.4 62,2.4 62,0 70.3,0"/><polygon id="Fill-11" class="st0" points="81.9,26.8 79.5,26.8 79.5,14.6 75.8,14.6 75.8,26.8 73.3,26.8 73.3,0 75.8,0 75.8,12.2 79.5,12.2 79.5,0 81.9,0"/></g><g id="Illustration" transform="translate(87.565)"><path id="Fill-12" class="st1" d="M.3 41.6l.4 7.8L.6 54h100.8V37.7l-.4-.4-.3-.9-.6-1-1.1-1.1v-.7l-.2-.3v-.6l-.4.1V32h-.1v-.1h.1l.2-.3v-.9l-.2-.1v-1c0-.5-.1-1.1-.2-1.6-.5-2.3-2.3-4.2-4.6-4.8l-.7-.2h-.1v-.3l-.3-.6h-4.6c-.2.6-.3 1.2-.5 1.8-1.9 1.2-3.1 3.3-3.1 5.7 0 .6.1 1.1.2 1.7h-.2v.6h.3v.1h-5.4l-.2-.5-.1-.1-.3-5.4v-.1l-.3-.3-.5-.3-.6-.2-.2-.1h-.3l-.5-.2v-1.3l-.1-.1-.1-.1-.1-.1-.6-.2v-7.4l-1.7.6-.1-.4c0-.1-.1-.3-.1-.4-.3-1.2-.6-2.2-1.1-3.2-.1-.2-.2-.5-.3-.7-1-2.1-2.6-4.4-4.5-6.1l-1.9-1.7c-1.6-1.1-3.2-1.9-5-2.5C58.5.5 56.3.1 54 .1c-9.7 0-17.7 7.2-19.6 16.5h-1.1l-.1.4v5.2l-.4.2-.1 1.1-1.9 1.5-.9-.1-.4.6.1 4.4-.6.1v2.1H15.7c.5-.9.8-1.8.8-2.9 0-3.2-2.7-5.9-6-5.9s-6 2.6-6 5.9c0 .6.1 1.1.2 1.6h-.4v1.6h.2v.6l-.5.5L2.5 35l-.9 1.6-.5 1.1-.5 2.1v.9H.2l.1.9z"/><path id="Fill-13" class="st1" d="M84.3 31.3h14.2l-.1-.7-.1-.1v-1c0-.5-.1-1.1-.2-1.6-.5-2.3-2.3-4.2-4.6-4.8l-.8-.2h-.1v-.3l-.1-.6h-4.6c-.2.6-.3 1.2-.5 1.8-1.9 1.2-3.1 3.3-3.1 5.7 0 .6.1 1.1.2 1.7h-.2v.1zm-74-8c-3.3 0-6 2.6-6 5.9 0 .6.1 1.1.2 1.6h-.3v.1H12v.4h3.9c.3-.7.4-1.4.4-2.1 0-3.3-2.7-5.9-6-5.9zM57.9.7L53.8.1c-9.7 0-17.7 7-19.6 16.4.6-.3 1.1-.7 1.8-.9l.1-.7.2-.3.4.5v.5l1.3-.5c1.6-.5 2.1-.5 4-.9v-.8l.5-.5.4.4v.7c2.3-.4 4.8-.7 7.4-.8v-.6l.6-.5.9.5v.4c3.8-1.2 6.5-4.5 6.5-8.4 0-1-.5-2.9-.9-3.8l.5-.1z"/><path id="Fill-14" class="st0" d="M28.4 37h-2v.1l2-.1zm-11.7-1.9h11.8V35H16.7v.1zm11.7 1.2h-2v.1l2-.1zm0 2.3h-2v.1l2-.1zm0-.8h-2v.2l2-.2zm-6.7-1.4h2v-.1l-2 .1zm-4.7 4h2v-.1l-2 .1zm2-1.8h-2v.1l2-.1zm7.4 1.8h2v-.1l-2 .1zm-2.7-1.8h-2v.1l2-.1zm-2 .9h2v-.1l-2 .1zm2-1.7h-2v.1l2-.1zM19 39.4h-2v.1l2-.1zm30.8-18.7l.6-1.8.1-6.3.4-.3-.1-.1-.4.3-.1 6.3-.6 1.8.1.1zm.4 32.8l-.5-32.8h-.2l.7 32.8zm-1.4-35h.8v-4c-.3 0-.5 0-.8.1v3.9zm-.6 9.6h.9v2.3l-.9.1v.1l1-.1V28l-1 .1zm-1.9-9.5v-3.9c-.3 0-.5.1-.8.1v3.9c.3 0 .5-.1.8-.1zm.9 15.1l-.1-.1h-.6l-.3.1v3l-.1.2.2.1.2.1.1-.2-.2-.1h-.1.5l.1-.1h.4l.1-.1v-2.9zm12.1 7.7V50l-.1.1v.6l.1.1v-9.4zm-30.9-2h-2v.1l2-.1zm15.7-3.5h-.3l-.2-.1h.4V35h-.3l.4-.1v-1h-.7l-.3.1.1 2.8-.2.3h.4l.1-.4-.2-.1h.8v-.7zm.6-17.1V15c-.3 0-.5.1-.8.1v3.8c.2-.1.5-.1.8-.1zm-2.5 12.3h1v-2.3l-1 .1v.1l.9-.1V31l-.9.1zM31.7 54zm2.6-36.4V20c.1 0 .1 0 .2-.1v-2.5c0 .2-.1.2-.2.2zm-3 14h-.1v.1l.1-.1h.1v1.6h-.2v.1h.2v-1.8h-.1v.1zM14 32.9l.5-.1v-.1h-1.6v2h.2v-1.8h.9zm17.9.2h.3v-1.9h-.1l-.3.1v.1l.2-.1V33l-.1.1zm.3 4.8l-.1-.1v-.1l-.1-.1v-.9l.1-.1-.3-.3-.2.2v2.1h.2-.2v.5l-.1.3.3.1.1-.4h-.1.2V39h.1v-.4H32V38l.2-.1zM19 37.8h-2v.1l2-.1zm11.9-6.6zm0 2.4v-1.8h-.2l-.1.1v.1l.1-.1h.1l.1 1.7h-.3v.1l.3-.1zm4.3-16.3v2.6c.1 0 .1-.1.2-.1v-2.6c-.1 0-.1.1-.2.1zm.4-.2v2.5c.1 0 .1-.1.2-.1v-2.4h-.2zm-.6.3c-.1 0-.1.1-.2.1V20c.1 0 .1 0 .2-.1v-2.5zm-4.7 14.7l-.1.1-.2.1v.1l.2-.1v1.5l-.2.1v.1l.3-.1v-1.8zm2.2 16.4v-.7l-.1-.3-.3-.1h-.3l-.2-.4-.6-.3h-.1l-.1-.1.1-.1h.1v-1l-.1-.1-1-.3-.2.1-.1-7.3-.2-12.2v-.2l.3-.4 1 .1v-.1.1l1.8-1.4v.5l-1.6 1.3h-1V32c.2-.3.6-.3 1-.6v-.1h-.1v-1.8c0-.8.7-1.4 1.5-1.4h.1l.2 21-.1-.6zM.2 44.8v.6-.6zM5 40.4l.4-.7.2-.2.6-.7.4-.4.6-.4 1.1-.5h.2l.5-.2v3.4H4.9l.1-.3zm10.4-4V36l.1-.1.9.2v2.1h-1.1l.1-1.8zm4.7 0V36l.3-.1h.5l.5.1v2.3h-1.2l-.1-1.9zm4.6 0V36l.3-.1h.5l.5.1v-.1h.2v2.4h-1.4l-.1-1.9zm8.5 15.1h-.1l-.2-1-.2-26.1v-1.8l3.2-2.5h.1l.3-5.1h-.2v.7c-.1 0-.1 0-.2.1-.3.1-.6.3-.9.5-.2.1-.3.2-.5.3.1-.1.3-.2.5-.3.3-.2.6-.4.9-.5.1 0 .1 0 .2-.1l-.3 4.3-1.6 1.2-.1-3.7H34l.1 3.8h.1l-1 .7v-5.3h.9v-.2H33v.2h-.1v5.4h.2l-.5.4v.1h-.2v1l-1.9 1.5-.9-.1-.3.5v4.4l-.3.1v.1h.3l.1 7.9s.1 4.4.1 7.3l-.4-.1-.2.1V47l-1.7-.3h-.3l-.5.3-2.9-.3-.3-.4v-.1l.1-.1h-1l-.1-.1h-.7l.1-.1H21l-.4-.1-.1.1-.5-.2-2.1-.1-.9-.2-2.4-1h-1.5l-.5-.1H12l-.2-.1.1-.2h-.2l-.2.1-.2-.1-.9.1-.1.1h-.5l-.8.6-.6.2h-.7.1l.1.1-.2.1h-.5l-.2.3-.4.2h-.3v.1h-.2v.2l-.3.2-.6-.2-.2.2h-.1l-.2-.1v-.2l-.9-.1-.3.2h-1v1.9-1.1l-.5-.1-.1-.1v-.1l-.4-.1H.6l-.1.6-.1-1.3v-1c0-.4-.2-3.4-.2-3.9H29v3.8h.1L29 31.4l.1-.7V30h-.3v2h-.3v.2h.2l.1 8.4H26v-4.8h-.3v-.1l-1-.2v.1l-.1-.2-.4.2.1.2H24v4.8h-.2l-.1-.3.1-.1-.1-.6.1-.1-.1-.5.1-.2-.1-.5.1-.1.1-.1-.1-.5.1-.9h-.1l-.1.7h-2v.1h2v.2l.1.5-.1.1V38l.1.5-.1.2.1.5-.1.1.1.6-.1.1-.1.1h-2v.1h2l.1.3h-2.4v-4.9l-1.1-.2v.1l-.1-.2-.4.2.1.2h-.3v4.8h-.3l-.1-.3.1-.1-.1-.6.1-.1-.1-.5.1-.2-.1-.5.1-.1.1-.1-.1-.5.1-.9h-.1l-.1.9.1.5-.1.1V38l.1.5-.1.2.1.5-.1.1.1.6-.1.1-.1.1.1.3h-2.6v-4.5l.1-.3h-.1v-.1h-.3l-.7-.2v.1l-.1-.2-.4.2.1.2h-.2v4.8h-.5l-.1-.2.1-.1-.1-.6.1-.1v-.1l-.1-.5.1-.2h-.1.1l-.1-.6-.1-.1.1.1.1-.1v-.2l-.2-.6.1-.9H14l-.1.9H10v.1h3.9l.1.5v.1h-4v.2h4l.1.5-.1.2h-4v.1h4l.1.5H10v.1h4l.1.6v.1H10v.1h4-.1l.1.2H9.7V36l2.4-.1v-.6H7v.4l-1.3.7-1.3 1.1-.9 1.2-.5.9-.4 1H.5v-.8l.5-2 .4-1.1.9-1.6 1.3-1.3.8-.6.5-.3.1-.3h5v-.2H4.8v.1l-.1.2-.3.3-.9.6L2.3 35l-.9 1.6-.5 1.1-.5 2.1v.8H0v.2l.2 3.9V54H31l1.8-.3v-.4l-.1-.1-.4-.2-.2-.3 1-.6v-.3l.1-.3zm-2.5-11.6h.3V37h-.3v2.9zm-8.9-6.8h.7V33h.9v-.1h-1.8v1.8h-.1v.1h.2v-.1h.1v-1.6zm-2.5-.1h1.8v-.1h-2v1.9h.2V33zm5 1.8v-1.7h1.5V33h-1.7v1.8h.2zM19 37h-2v.1l2-.1zm0-.7h-2v.1l2-.1zM17.5 33l1-.1v-.1h-2v1.9h.2v-1.8h.8zm10 0h-.9v1.8h.2v-1.7h.7V33l.9.1V33h-.9zM9 32.9l1-.1v-.1H7.9v2h.2v-1.8H9zm-3.4 0h1.9v-.1H5.6v.1zm6.2-.7H4.1v-1.1l.6-.1h7.1v1.2zm-7.6-3c0-3.2 2.7-5.9 6.1-5.9h.6c1.5.4 2.6 1.9 2.6 3.6 0 1.8-1.2 3.3-2.9 3.6-.3.1-.7.2-1.1.2H9v.1H4.4c-.1-.5-.2-1-.2-1.6zm7.6 3h2.1l.1.1v.2h.9l-.2-.1H28v-.2h-9.9v-.1l.2-.3v-.9l-.2-.1v-.3l-.1-.1v-1.2l.4-.2v1.4h.6v-.8c0-.4 0-.8-.1-1.2l-.5-1.7c-1.1-2.9-4.3-5-7.8-5v.3c.4 0 .9.1 1.4.2l-.3.6h-.3v.1c-.4.1-.8.2-.9.2v.1h-.3c-3.4 0-6.2 2.7-6.2 6 0 .5.1 1.1.2 1.6h-.1v1.5h7.7v-.1zm.5-7.9c0 .1 0 .1 0 0zm-.6 8.6l1-.1v-.1h-2.1v2h.2v-1.8h.9zm2.9 2.1H7.2v.1h7.4V35zm43.2-1.7l-.3-.1v.2l.3.1v2.4h.1v-2.5h-.1v-.1zm-22.6 3.9v.8h.6l.1-.1v-.7h-.7zm0 1.1h.4V38h-.4v.3zm.3-8c.3 0 .5 0 .7-.1v1.9l-.7.1v.1l.7-.2V30c-.3.1-.5.2-.7.3zm2.7 7.5h.1v-3.3h-.1v3.3zm-3-1.6v.8h.5l.2-.1v-.7h-.4v-.1h.2l.2-.1v-.9h-.4l-.3.2v.9l.2-.1v.1h-.2zm2.7-4.4v-2.2l-.7.2v.1l.6-.2.1 2.1-.7.1v.1l.7-.2zm-.3 3l.1.1h-.3v2.7h.1l-.1.2.3.1.1-.2-.2-.1h.2V35l.2-.2-.2-.3-.2.3zm35.3-20.4zm9.8 20.5v.2l11.6-.1v-.2l-11.6.1zM52.6 18.3h.7v-4h-.7v4zM38.9 31.5h.7v-2.2h-.1l-.7.1v.1l.6-.1v2.1h-.5zm-4.7-.9l.7-.1v1.8l-.7.2v.1l.7-.2v-2h-.1l-.6.2zm60.4 4.8h-.3v-.2H82.6v-.5h.1l.2.1.1-.1v.1l6.8-.2H92v.1h.3v-.1h1.3v-.1h-1.3v-.1c0-.7.8-1.3 1.7-1.3h.5v1.3l-.1.1.1.2.2-.1v.8zm-11.7-.9l.1-.4.1-.2-.2-.1h-.1c.2-.3.8-.6 1.4-.8h.7v1.4h-.2v.1h-1.8zm4.4-1.5v1.5h-1.9c0-.1-.1-.2-.1-.3 0-.6.9-1.2 2-1.2zm2.3 0v1.4h-2v-.2c0-.7.8-1.3 1.7-1.3l.3.1zm2.2 0v1.4H90v-.2c0-.7.8-1.3 1.7-1.3l.1.1zm.2-.6v-.2h-5.5v.1-.1l-7.3.1v-.2H92v.2h2.2l.1.1v.2h.3v.2H82.9v.1h-.2v-.4h-1.6l5.5-.1H92zm-11.9 0v.2h-.8l-.1-.1.9-.1zm4.4-1h7.2v.5h-7.2v-.5zm7.3-.8c-.1-2.3.2-4.6.8-6.7v.1c1 .7 1.6 1.8 1.6 3.1 0 1.2-.5 2.2-1.4 2.9-.1.1-.2.2-.3.2-.1.1-.2.1-.3.2-.1.1-.3.1-.4.2zm-.6.2h-2c0-3 .4-5.9 1.3-8.6h2c-.4 1.4-.8 2.8-1 4.3-.2 1.3-.3 2.8-.3 4.3zM67.7 15.3c2.2.4 4.7.9 6 1.6l-6-1.6zm-1.2 21.6h-.8v-.8h.3l.1-.1h-.3v-.8h.4l-.3-.1v-1h.6l.2.1-.2 2.7zm-6.1-23.1c1.9.2 4.1.6 5.7 1.1l-.1-.7h-.7l-.1-.6.9-.4.2-.1h.1v2l-.2-.1v-.2l-5.8-1zm3.8 23h-.4l-.1-.1h-.3l-.1-.1v-2.9h.5l.3.1v3zm-1.9 15.8l-.4-.1-.3.1-.1-.1v-.3h-.2.1l-.1-.2.2.1.1-.6h.2v-.6h-.3l-.1-.1v-.2l.6-.2h.3v.1l-.1.3v.8l.3 1h-.2zm9.2-37.9l.2-.1h.1v1.5l-.2-.1-.1-.6h-.6V15l.6-.3zm-13.2.4V23l-.4-.4-.5-.3-4.8-3.3h-.4l-.3-5.7h.1v.1h5.9v-.1h.3l.1 1.8zm28.2 15.6c0-3 .4-5.9 1.3-8.6h2.1c-.2.8-.5 1.6-.6 2.4-.5 2-.7 4.1-.7 6.2h-2.1zm14.4 6.6l-.3-.8-.6-1-1-1.1v-.7l-.2-.3V33h-.5v-.9h-.1V32h.3v-.8l-.1-.2v-1.5c0-3-2-5.6-4.7-6.3l-.8-.2v-.2c-.1-.2-.1-.4-.2-.6V22h-2.2c-.9 2.8-1.3 5.7-1.3 8.7H91h-2.2l.3-.1c0-2.7.4-5.3 1.1-7.8-.1-.2-.1-.4-.2-.6v-.4h-2.3c-.2.7-.4 1.3-.5 2-1.9 1.3-3.1 3.4-3.1 5.7 0 .5.1 1 .2 1.5h.1c-.1-.5-.2-1-.2-1.5 0-2.2 1.1-4.3 2.9-5.6-.5 2.1-.7 4.3-.7 6.6h2.1-2.3v.5l5.8.1h-.3v.2h-7.3v.6h-5.2v-.3h-.4l-.1-.1v-5.7l-.3-.3-.5-.3-.6-.2h-.4l-.2-.1-.5-.2v-1.3l-.1-.1-.1-.1v-.1h-.9v-7.4l-1.7.6c-.1-.3-.1-.6-.2-1v-.1l-.1-.1c-.1-.2-.1-.4-.2-.6v-.1c0-.1-.1-.2-.1-.4v-.2c-.1-.2-.1-.3-.2-.5v-.1c0-.1-.1-.2-.1-.3-.1-.2-.2-.5-.3-.7-.1-.3-.2-.5-.3-.8-.1-.2-.2-.3-.3-.5-.1-.3-.3-.6-.5-.8-.1-.1-.1-.3-.2-.4-1.4-2.3-3.2-4.2-5.3-5.8l-.2-.1c-1-.7-2-1.3-3-1.8-2.6-1.3-5.5-2-8.5-2-9.7 0-18 7-19.9 16.6h.4C36.3 7.2 44.4.3 53.8.3c1.3 0 2.5.1 3.7.4.3.9.8 2.7.8 3.6 0 3.9-2.7 7.2-6.3 8.4v-.2l-.7-.3.2 6.6-.8 2.1-.1 2.6.1 4.2h.1v.2l.4 25.3H51v.2l-.3.3-.4.2-.3.1h2.9l-.4-9.6-.2-4.4v-1.5l-.2-2.5-.2-5.1h-.2v-.5h.4v-2.1l-.1-.2h-.3v-.5h.2v-3.9h.3c1.8.3 3.2 1.2 3.2 1.9l-.1 1.7h3.4v-.2l-.1-1.9V12.5h-.5v-.3l.7-.5.7.4v.1l.1.1v38.8h-.5V51l-.1.3v.3l-.1-.1-.2-.4-.2.4-.2.3-.4.4.1.1.1.1.4-.4.2-.2.2-.1h.4l.3-.2.6-.1.4-.2.1-.1h.3l.1.2-.1.4v.1l.1.2.1.2H61l-.1.1-.7.4-1.6.9-.6.4h3.8l.2-.1-.1-.1v-.1h.1l.6-.3-.1.4h.4l.1-.5h.3l.1-.1.1.2-.5.4.1.1.1.1.3-.3h.2v-.6h-.2l.1-.1.2-.2.3-.1.2-.1.2-.1.1.1v.4h.1v1h36.6V37.3h-.4zM47.1 18.6c.3 0 .5 0 .8-.1v-3.9c-.3 0-.5 0-.8.1v3.9zm7-4.3v4h.7v-4h-.7zm1.5 4h.7v-4h-.7v4zm1.5.1h.7v-4h-.7v4zm-.6 14.8l-.2.1v3.4h.3l.7-.2v-3.2l-.1-.1h-.7zm-.6-2.7l.9.1v-2.5h-.9v.1h.8v2.3h-.8zm-1.6 22.1h.5v-.1l-.5.1zm3.5-22.1l.9.1v-2.5h-.9v.1h.8v2.3h-.8zm-3.4-.1H54v.1h.2l.2-.1.5.1V28H54v.1h.9v2.3c-.1.1-.5 0-.5 0zm-8.2.3h1v-2.4l-1 .1v.1l.9-.1v2.3h-.9zm-2-2.1h.9v2.2l-.9.1v.1l1-.1v-2.4l-1 .1zm8 1.9l.9.1V28h-.9v.1h.8v2.3l-.8.1zM41 15.6v3.6c.2 0 .4-.1.6-.1v-3.6c-.3 0-.5.1-.6.1zm-.7.2c-.2 0-.4.1-.6.1v3.5c.2 0 .4-.1.6-.1v-3.5zm-2.9 4c.2 0 .4-.1.6-.1v-3.3c-.2.1-.4.1-.6.2v3.2zm2.8 2.3l2-2.5.1-5.4v-.6l.2-.3-.1-.1V13l-.2.3v.8-.1c-1.6.3-3 .6-4.3 1l.1-.1v-.2l-1.4-.2.3.4v5l-3.2 2.6v.1l.1 6.9v.1l.1 3.3v.5s0 1.2.1 2.6v15.4h-.3l.1.4h-.2v.2l-.1-.1-.2.3.1.1.1.1.1-.2v.1l.4-.1.4.3.2-.1h.1V52h-.2l-.2-.1.2-.3-.2-.1h.1l-.1-9.9v-8.9l-.3.4v-2.8l.7-.4.1-.1v-3.5h.1c.8.3 1.5 1.1 1.5 1.8v1.3l1.7-.4v-6L37 20.4v-4.8l.5-.4c1.4-.4 2.9-.8 4.6-1.1 0 .7-.1 4.9-.1 5.3l-2 2.5.2 31.5H40l-1.2.6h1.7v-.4h-.1l-.2-31.5zm13.9 14.1v-3h-.8l-.3.2v3.1l.1.1.1.1.2-.1-.1-.1h.3l.5-.3zM38.6 19.6c.2 0 .4-.1.6-.1V16c-.2 0-.4.1-.6.2v3.4zm7.8 6.6l-.2-3.1-2.9-4.2-.1-4.6h-.1l.1-.1.2-.1.2-.1.3-.1c2.2-.3 3.9-.5 6.5-.6v-.2c-2.3.1-4 .2-5.9.5l-1.8-.6.3.3v1l.1 4.8-1.7 2.8-.2.3H41l.2 3.5.1 2.5v3.2h-.1l.1 3.8v18.6h3.6-.1l-.6-.3H44l-.2-.1-1.4-.1-.5-17.7.1-4.1h-.1V31h.1v-2.3h-.1v-.5h.1v-.3l-.1-3.7h.1c.7.3 1.3 1.3 1.3 2.1v1.6h.4l.9-.1 1.2-.1.7-.1-.1-1.4zm8.9 27.7v-.7l-.5-.6h-.5l-.3.9-.1.5h1.5l-.1-.1z"/><polyline id="Fill-15" class="st0" points="8,32.3 4.2,32.3 4.1,33.2 4.4,33.2 4.4,33.1 4.2,33.1 4.2,32.4 7.9,32.4"/><path id="Fill-16" class="st1" d="M19.7 49.4l-.2.4h.1l.1-.4zm-3.1 2.5c-.1-.1-.1-.1-.2 0 .1-.1.2-.1.2 0zm-2.9.9c.1.1.4.1.3.2-.4-.1.1 0-.3-.2zm.3.6c0-.1-.2-.2 0-.2v.1c.1 0 .1.1 0 .1zm2.1-1.6c0-.1 0-.1 0 0zm0-.2c.1 0 .1 0 0 0zm7.5-1c.1-.2-.3-.3 0-.5h.1c.2-.7 1.3-1.3 1.7-1.9h-.3c.7-.6 2.1-.7 1.7-1.5-.3.4-2.2.1-1.9.6-.5 0-.3.3-.8.3-.9.4-.4.8-1 1.2-.2 0-.3-.1-.6-.1l.3-.4-.5.2c-.1-.1.4-.3 0-.5 0 .4-1 .8-.9 1.2.3-.1.4-.3.6-.4.2 0 .5-.1.7 0 0 .6-.8.8-1.3 1.3-.1.1-.4.3-.6.2 0-.1-.2-.1-.2-.2-.1.2.7.2.3.4l-.6-.2c.6.3-.5.2-.3.5-.3 0-.4-.2-.2-.3-.3.1.1.2-.1.3l-.4-.3c.4.3-.4.2-.7.2.1.1.6.1.4.3-.2 0-.3 0-.4-.1.1.1.3.2.2.3-.2 0-.2-.2-.4-.2-.1.1-.1.1-.4.1 0 .2.3.1.4.2-.4.1-.7-.2-1.2-.3-.1-.2.1-.4 0-.5l-.2.3c-.2-.1-.7 0-.7-.2-.6.2-.8.6-1 .9h.4c-.1.2-.3.1-.5 0 0 .1.4.3.6.4-.6.1-.4.2-1.1.2l.4.1c-.5 0 .1.2-.3.3-.1 0-.1-.1-.2-.2 0 .1-.5 0-.5.1l-.3-.2c-.1.1-.1.3-.5.1.1.1.1.1.1.2-.1.2-.3.4-.4.6l-.3-.1c.3.2-.5.3-.1.6h-.2l.6.4h4.6c0-.1.1-.1.3-.2.2 0 .1.1.1.2-.1-.3.7-.6 1-.9.8-.2 1.6-.7 2.5-1l-.1-.1c.6 0 .6-.4 1-.5h-.3c0-.2.2-.2.3-.4l.5.1c.1-.2-.2-.2-.3-.3.4 0 .6-.4.7-.4.3-.1.2.1.3.1zm-1.1-3.1l-.2.2h.2v-.2zm4.2 3.3l-.1.1.1-.1zm-5-3.5l-.3-.1v.3c.3 0 .2-.1.3-.2zm-4-1.7l-.1.1h.1v-.1zm-2.1.7l-.2.2.2-.2zm1.2-1l-.1-.1-.1.1c.2.1.1.1.2 0zm.3.2zm.2-.1l-.2-.1-.1.2c.2 0 .1-.1.3-.1zm8.9 5.3H26v.2c.2 0 .1-.1.2-.2zm10.3 3.1l-2.1-.9-2.4-.5-2.1 1.4-.2.2h8.7l.3-.2 1.4-.7-2 .6-1.6.1zm-8-4.7V49c.2-.1.3.1.3.1.1-.2-.3-.1-.4-.2l.1.2zM54.3 54h.2-.2zm7.8-1.3l.2-.1-.3-1 .1-1 .2-.2v-.1h-.4l-.6.3-.1.3.2.2v1.2l-.3-.3-.1-.7-2.1.6-.9.7-.3-.3-.5.4-.1.8h-.4l-1.4.5H58l.4-.4 2.7-1.3v-.2l.1.2.1.1-.1.3.2.1.3-.1h.4zm-33.5-4c0-.1-.2 0-.3 0l.2.1.1-.1zM25 52.4l.1-.3-.1.3zm1-.8l.3-.3c.1 0 .2-.1.3 0h-.1l.1-.2-.2.1c0-.1.2-.2 0-.3 0 .2-.5.5-.4.7zm2.7-2c-.2.3-.9.6-.7.9-.2 0-.1.2-.4.2-.4.3-.1.6-.4.9h-.1c0 .4-.4.6-.6 1-.1.1-.2.2-.3.2 0-.1-.1-.1-.1-.1 0 .1.3.2.2.3l-.3-.2c.3.2-.2.2-.1.4-.2 0-.2-.1-.1-.2-.1.1 0 .2 0 .2l-.2-.2c.2.2-.2.1-.3.1.1 0 .3.1.2.2h-.2c.1 0 .2.1.1.2-.1 0-.1-.1-.2-.2 0 .1-.1.1-.2.1 0 .1.1.1.2.1-.2.1-.3-.1-.6-.2v-.4l-.1.2c-.1-.1-.3.1-.3-.1-.3.1-.4.4-.4.6h.2c0 .1-.2 0-.3 0 0 .1.2.2.3.2h2.6c.1 0 .1-.1.2-.1h-.1c.3 0 .3-.3.5-.4H27c0-.2.1-.2.1-.3h.2c0-.1-.1-.1-.2-.2.2 0 .3-.3.3-.3.1 0 .1.1.1.1 0-.2-.2-.2 0-.4h.1c.1-.5.6-.9.8-1.4h-.1c.2-.2.7-.7.4-1.2zm-13.1-2.8l-.2.3.2-.3zm12.9 2.5c-.1 0-.1-.1-.2-.1-.1.1.1.1.2.1zm-16.1-1.7c0-.1-.1-.1-.1-.1.1.1-.1 0 .1.1zm-6.2-2l-.3.4.3-.4zm1.3.5l-.1-.1.3-.3-.3.1c0-.1.3-.2.1-.4-.1.4-.8.6-.8.9.2-.1.3-.2.4-.3.2.1.3 0 .4.1zm3.6 2.9c-.1 0-.1-.2-.2-.2-.2.1 0 .2.2.2zm.1-.1c0-.1-.1-.1-.2-.2.2.2-.1.1.2.2zm0-.4c.4 0 .3.2.3.3.2-.3-.3-.3-.4-.4l.1.3v-.2zm-8.6 2c0-.2 0 0-.2-.1.1-.3.3-.1.6-.1.1-.2-.2 0-.2-.1.4 0 0-.3.4-.4.1.1 0 .1 0 .2 0-.3.5-.4.8-.7.5-.1 1.1-.4 1.7-.6l-.1-.1c.3 0 .4-.2.7-.3h-.2c0-.2.2-.2.3-.3l.3.1c.1-.1-.1-.2-.1-.3.3 0 .4-.3.5-.3.1 0 .1.1.1.2.1-.2-.1-.3.2-.4h.1c.3-.6 1.1-.9 1.5-1.5h-.1c.6-.5 1.4-1 1.4-1.6-.3.3-1.3.5-1.2.9-.3 0-.3.3-.6.2-.6.3-.4.7-.9 1h-.1c-.2.5-.7.6-1.1 1-.1.1-.3.2-.4.1 0-.1-.1-.1-.1-.2-.1.2.3.3.1.4l-.3-.3c.3.3-.3.1-.3.4-.2-.1-.2-.2 0-.3-.2 0 0 .2-.1.3l-.2-.3c.2.3-.3.1-.4.1.1.1.3.2.2.3-.1 0-.1-.1-.2-.1.1.1.1.2 0 .3l-.2-.2c-.1 0-.1.1-.2.1 0 .1.1-.4.1-.5-.2.1-.3.5-.6.4 0-.2.2-.3.2-.5l-.2.2c-.1-.1-.4 0-.4-.2-.4.1-.6.4-.8.6h.2c-.1.1-.2 0-.3 0 0 .1.2.3.3.4-.4 0-.3.1-.7 0l.2.1c-.3 0 0 .2-.3.2 0 0 0-.1-.1-.2-.1.1-.3 0-.3.1l-.1-.2c-.1.1-.1.2-.3 0 .1.3-.3.4-.3.6l-.2-.1c.1.1-.1.2-.2.3v2.1c0-.2.6-.2.5-.5 0-.1.4 0 .5-.1l-.2-.1c.2 0 .8-.2 1.3 0zm-2.3.8v-.1.1zm2.6-4.4l-.1.2c0-.1.1-.1.1-.2zm-2 1.2c-.2 0 0 .1 0 .1v-.1zm10.2 1.1v-.1c-.1-.1 0 0 0 .1zm1.2-1.4c.1 0 .1 0 0 0-.1-.1 0 0 0 0zm.5.2l-.1.1c.1 0 .2 0 .1-.1zm66.1-2.4l.3-.2 2-.9-1.4.1-.5.1-.1-.1-.4.1-.6.1.1.1-.7.1-.1.1h-1.1l.1.1v.1l-.5.3-3.1.4-.5-.3h-.3l-1.8.3-.3-.2.1-.2-2.4.4-.8.2h-.2V46l-.1-.1v.5l-.4.1h-.3l-.1-.3h-.1v.5l-2.7.6-.5.3-.2.3-.1.1H62v.4l.8-.1 2.7-.8.2-.2.5-.3.9-.1 1.2.2.8.4h.2l.4-.9h1.2l.8.4v.4l-.9.7v.3l-.5.3-.1.1v.1l.1.1 2-.7.4-.1h.3v.1l.2.1v1h-.5l-.1.2-.2.2.1.2.1.1.8.1.3-.2.1-.1-.3-.3V49h.5l.1.1.2-.1.3-.6v-.1l.4-.2h.3l.2-.1h.3v.1l.3.2h.1l.2-.4.7-.5.8-1.2 1-.6zM13.6 47v.1c-.1 0 0 0 0-.1zm-.6 1.2zm-.5 2.1c0-.1.3 0 .4-.1l-.2-.1c.3 0 .7-.2 1.2 0 0-.2 0 0-.2-.1 0-.3.3-.1.5-.1 0-.2-.1 0-.2-.1.3 0 0-.3.3-.4.1 0 0 .1 0 .2 0-.2.4-.4.6-.6.4-.1.9-.4 1.4-.6.3 0 .3-.2.6-.3h-.2c0-.2.1-.2.2-.3l.2.1c.1-.1-.1-.1-.1-.3.2 0 .3-.2.4-.3.1 0 .1.1.1.2.1-.1-.1-.3.1-.4.2-.5.8-.8 1.1-1.3h-.1c.4-.4 1.5.3 1.4-.3-.2.2-1.6-.1-1.5-.3-.1.1-.1.1-.3.1-.5.2-.3.6-.7.8-.1 0-.2-.1-.3-.1l.2-.3-.3.1c0-.1.2-.2.1-.3 0 .3-.6.5-.6.8.1-.1.2-.2.4-.3h.3c-.1.4-.5.6-.8.9-.1.1-.2.2-.3.1 0-.1-.1-.1-.1-.1-.1.1.3.2.1.3l-.3-.2c.2.3-.3.1-.2.3-.2 0-.1-.2-.1-.2-.2 0 0 .2-.1.2l-.2-.2c.1.2-.2.1-.3.1.1 0 .3.1.2.2-.1 0-.1 0-.2-.1.1 0 .1.2.1.2-.1 0-.1-.1-.2-.2-.1 0-.1.1-.2.1 0 .1.1.1.2.2-.2.1-.3-.2-.5-.3 0-.2.1-.3.1-.4l-.2.2c-.1-.1-.3 0-.3-.1-.3.1-.5.4-.6.6h.2c0 .1-.2 0-.3 0 0 .1.2.2.3.3-.3 0-.2.1-.6.1l.2.1c-.2 0 0 .2-.2.2 0 0 0-.1-.1-.1 0 .1-.2 0-.3.1l-.1-.2c-.1.1-.1.2-.2 0 .1.2-.2.3-.2.5l-.1-.1c.1.2-.3.2-.1.4h-.1l.1.2c-.1 0-.3-.1-.2-.1-.1.1-.2.2-.4.3.2.1.1.3 0 .4-.7.4-1 1-1.2 1.6-.1.1.1.3.1.4l.2-.2c.1 0 .4.1.5.1l-.2-.1c0-.2.2 0 .1-.2l.3.2c-.1-.1.1-.1.2-.1H11c.2 0 .2 0 .4.1l-.2-.1c.1.1.2-.2.4 0 0 0-.1-.1 0-.1l.2.1c0-.1.1-.2.2-.1 0 .1.1.1.1.2.3-.2-.5-.4-.2-.7l.1.1v-.1h.2c-.3-.3.4-.3.3-.5zm1.2-3.1zm-2 .9c0-.1-.2-.1-.4-.1l.2.2.2-.1zm6.9-2.9zm-7.7 4.3c-.3.3-1.4.6-1.4 1.2-.3 0-.3.3-.6.2-.7.3-.5.8-1 1.2-.1 0-.2-.1-.3-.2l.3-.4-.3.1c0-.2.3-.3.2-.5-.1.4-.9.7-.9 1.1.1 0 .3-.2.5-.3.2 0 .3 0 .4.1-.2.6-.8.8-1.2 1.2-.1.1-.3.2-.4.1 0-.1-.1-.1-.1-.2-.1.2.3.3.1.5l-.3-.3c.3.4-.4.2-.3.5-.2-.1-.2-.2 0-.3-.2.1 0 .3-.2.3l-.2-.4c.2.4-.3.1-.5.1.1.1.4.2.2.3-.1 0-.2-.1-.2-.1.1.1.1.2.1.3h2.5l.3-.3c.1.1.1.2.1.2.1-.2-.1-.4.2-.6H8c.3-.7 1.2-1.2 1.6-1.8h-.2c.6-.6 1.5-1.2 1.5-2zm70 4.5c0-.1.1-.1 0-.1v.1zm-5.3 0h-.4l-.2-.2-.3.1-.1.1h2l-.6-.3-.4.3zm16.7-6.8c.1 0 0-.1 0-.2-.3 0-.1.1 0 .2zm-20.1 6.1v-.2l-.1-.1H71l-1.2.4-.9.6h3.3l.4-.5v-.1l-.1-.1h-.3zm28.8-3.5l-.2.3c-.1-.1-.4 0-.4-.2-.4.1-.5.4-.6.7h.2c0 .1-.2 0-.3 0 0 .1.2.2.3.4-.4 0-.3.1-.7.1l.2.1c-.3 0 0 .2-.2.2-.1 0-.1-.1-.1-.1 0 .1-.3 0-.3.1l-.2-.2c-.1.1-.1.2-.3.1.1.2-.2.4-.2.6l-.2-.1c.1.2-.3.3-.1.5h-.1l.1.3c-.1.1-.3-.1-.3-.1-.1.2-.2.3-.4.3.2.2.1.3 0 .5-.4.2-.6.5-.8.8h1.8c0-.2.5-.2.5-.5 0-.1.4 0 .5-.1l-.2-.1c.3 0 .8-.2 1.4 0 0-.2 0 0-.2-.1 0-.3.3-.1.5-.1 0-.2-.2 0-.2-.1.3-.1-.1-.3.3-.4.1.1 0 .1.1.2 0-.1.1-.3.2-.4v-1.9c-.1-.1-.2-.1-.3-.1.1-.5.2-.6.2-.7zm-29.4-1.2h.2c0-.1 0-.1-.2 0zm29.5-4.1v-.2.2zm-6.6.8l-.1.2h.1c-.1-.1 0-.1 0-.2zm-2.1 1.5c0-.1-.2-.1-.3-.3.3.3-.2.1.3.3zm2.5-1.1c0-.1-.1-.1-.2 0h.2zm-88 5c.2 0 .2-.1.3-.1l-.2-.2-.1.3zm.9.3v-.1l-.2.1h.2zm-3.6 2.9v.1h.4c0-.1 0-.1-.1-.2-.1 0-.1.1-.3.1zm-.5-.2c0-.2.2-.4.2-.6l-.2.3c-.1-.1-.4 0-.4-.2-.4.1-.6.5-.8.8h1.6c-.1-.1-.2-.2-.4-.3zM.9 52.1l-.1-.2s0 .1.1.2zm11.6 1.8c0 .1 0 .1 0 0l.2.1c-.2 0-.3-.1-.2-.1zm10.5-.2h.1c0-.1 0-.1-.1 0zm-.2-.2v.1s.1-.1 0-.1zM4.9 52.3l-.3.4h.1l.2-.4zM1 54c0-.1.1-.1.1-.2L1 54zm65.6-.9l-.8.1h-.2v-.1l-.4-.1h-.7v-.5l-.1-.1-.2.1-.2.2-.3.1-.2.2v.1l-.1.1h-.1l-.2.2h-.5l-.6.3h-.2l.1.2-.2.1h4.8v-.3l1.1-.1.2-.2v-.1l-.1-.1-1.1-.1zM87.2 50v-.1l-.1.1h.1zm-1.1-5.8l-.2-.1v.2c.1.1 0 0 .2-.1zm-5 3.2v.2h.1c-.2-.1-.1-.1-.1-.2zm5.5-3l-.1.1h.1v-.1zm-.1 5.3l-.3-.1v.3c.3 0 .1-.1.3-.2zm.2.6c0-.1.3-.3 0-.4 0 .4-.7.8-.6 1.2.2-.1.3-.3.5-.4.2 0 .3-.1.5 0-.1 0-.1-.1-.2-.1l.2-.4-.4.1zm-7.7-2c.3.2-.1.1.3.2 0-.1-.2-.1-.3-.2zm.2.6c.1 0 0-.1 0-.1-.2-.1 0 0 0 .1zm5-3l-.2.3h.1l.1-.3zm.3 5.9l-.2.4h.1l.1-.4zm-1.9-2c0-.2-.1 0-.2-.1 0-.3.3-.1.5-.1 0-.2-.2 0-.2-.1.3-.1-.1-.3.3-.4.1.1 0 .1.1.2 0-.3.4-.5.7-.7.5-.2 1-.5 1.6-.7l-.1-.1c.3 0 .4-.3.6-.4h-.2c0-.2.2-.2.2-.3l.3.1c.1-.2-.1-.2-.1-.3.3 0 .4-.3.5-.3.1 0 .1.1.1.2.1-.2-.1-.3.1-.4h.1c.2-.6.9-1 1.2-1.5h-.2c.5-.5 1.2-1.1 1-1.7-.2.3-1.1.5-1 1-.3 0-.2.3-.5.2-.5.3-.3.7-.7 1-.1 0-.2-.1-.3-.1l.2-.3-.3.1c0-.1.3-.3.1-.4 0 .4-.7.6-.6 1 .2-.1.3-.2.4-.3.1 0 .3-.1.4 0-.1.5-.6.7-.9 1-.1.1-.2.2-.3.1 0-.1-.1-.1-.1-.2 0 .2.4.2.1.4l-.3-.2c.3.3-.3.2-.2.4-.2 0-.2-.2-.1-.3-.2.1 0 .2-.1.3l-.2-.3c.2.3-.2.1-.4.1.1.1.4.1.2.2-.1 0-.1 0-.2-.1.1.1.2.2.1.2s-.1-.1-.2-.2c-.1.1-.1.1-.2.1 0 .1.2.1.2.2-.2.1-.4-.2-.7-.3 0-.2.1-.4.1-.5l-.4.2c-.1-.1-.4 0-.4-.2-.4.1-.5.4-.6.7h.2c0 .1-.2 0-.3 0 0 .1.2.2.3.4-.4 0-.3.1-.7.1l.2.1c-.3 0 0 .2-.2.2-.1 0-.1-.1-.1-.1 0 .1-.3 0-.3.1l-.1-.1c-.1.1-.1.2-.3.1.1.2-.2.4-.2.6l-.2-.1c.1.2-.3.3-.1.5h-.1l.1.3c-.1.1-.3-.1-.3-.1-.1.2-.2.3-.4.3.2.2.1.3 0 .5-.8.5-1.1 1.2-1.3 1.9-.1.1.1.3.1.5.2-.1.1-.2.2-.3.1 0 .4.1.6.1l-.2-.1c0-.2.2 0 .1-.2l.3.2c-.1-.1.1-.1.2-.1l-.2-.2c.2 0 .3 0 .5.1l-.2-.1c.2 0 .3-.3.5 0 0 0-.1-.1 0-.2l.2.1c0-.1.1-.2.2-.1 0 .1.1.1.1.2.3-.3-.6-.5-.3-.7l.1.1-.1-.2h.2c-.3-.4.4-.3.4-.6 0-.1.4 0 .5-.1l-.2-.1c.3-.2.9-.5 1.4-.2zm-1.3-2.1h.2c-.1 0-.1-.1-.2 0zm9.2-1.1c0-.1-.3 0-.5 0l.3.2.2-.2zm-.6.4l.2.3-.1-.2c.4-.1.4.1.4.2.3-.3-.3-.2-.5-.3zm5.6-1.9c-.1-.1-.1-.1-.1-.2h.1c.1 0 0 .1 0 .2 0-.1.1-.1.1-.1h.1c.1.2-.1.1-.2.1zm4.9-6.2h-.2l-1.2.4-.6.2h-.2v-.1h-.8l-1 .3.1.2 2.1.8 1 .7v.5h-.2l-.1.2h-.6l-.8.6h-.4l-.3-.1H97l-.5.9.2.4c-.1 0-.4 0-.4-.2-.4.2-.6.5-.7.8l.6-.4h.5v.1h-.5l-.5.4h-.1s0-.1.1-.1l-.2.2-.3.3-.1.1v.1l.1.1.2-.1h.1l.1.1c.1.1.2.2.2.3-.4.1-.3.2-.8.1l.3.2c-.3 0 0 .3-.2.3-.1 0-.1-.1-.1-.2 0 .2-.3 0-.3.1l-.2-.3c-.1.1-.1.3-.3.1.1.3-.3.5-.3.8l-.2-.2c.2.3-.4.4-.1.6h-.1l.1.4c-.1.1-.4-.2-.3-.1-.1.2-.3.4-.5.4.3.2.1.5 0 .7-.9.6-1.4 1.6-1.6 2.5-.1.1.1.5.1.7.2-.1.1-.2.2-.4.2-.1.5.1.7.1l-.3-.1c-.1-.3.2 0 .1-.3l.4.3c-.2-.2.1-.2.2-.2l-.2-.2c.2 0 .3 0 .6.1l-.2-.2c.2.1.3-.4.6 0 0-.1-.1-.2 0-.2l.2.2c0-.1.1-.3.2-.2 0 .1.1.2.2.3.4-.4-.7-.6-.4-1l.1.1-.1-.2h.3c-.4-.5.5-.5.4-.9 0-.1.5 0 .6-.2l-.2-.2c.4 0 1-.3 1.6 0h.2c.2-.4.6-.9 1.1-1.2.1-.1.2-.3 0-.5.2 0 .3-.2.4-.3-.1 0 .2.1.3.1l-.1-.3h.1c-.2-.2.3-.3.1-.5l.2.1c0-.2.4-.4.2-.6.2.1.2 0 .3-.1l.2.2c0-.1.3 0 .3-.1 0 .1 0 .1.1.1.2 0-.1-.2.2-.2l-.2-.1c.4 0 .3-.1.7-.1-.1-.1-.3-.2-.3-.4.1 0 .3.1.3 0h-.2c.1-.2.3-.6.6-.7 0 .2.3.1.4.2l.1-.2v-5.3h-.9zm-10.2 8.7c-.1 0-.1-.2-.3-.1-.2.1.1.1.3.1zm-.6.3c-.2.4-1.3.8-1.1 1.4-.4 0-.2.4-.6.3-.6.4-.3.9-.7 1.4H87c0 .6-.6.9-.9 1.5-.1.1-.3.3-.4.2 0-.1-.1-.1-.1-.2 0 .2.5.3.2.5l-.4-.3c.4.3-.4.2-.2.6-.2 0-.2-.2-.1-.3-.2.1 0 .3-.1.4l-.3-.3c.3.3-.3.2-.5.2.1.1.5.2.3.3-.1 0-.2 0-.3-.1.1.1.2.2.1.3-.2-.1-.1-.2-.3-.2-.1.1-.1.2-.3.1 0 .2.2.1.3.2-.3.2-.5-.2-.8-.3-.1-.2.1-.5 0-.6l-.2.3c-.1-.1-.5.1-.5-.2-.4.2-.5.6-.6.9h4.8-.2c0-.2.2-.3.2-.4l.3.1c.1-.2-.2-.2-.2-.4.3 0 .4-.4.5-.5.2 0 .1.2.2.2.1-.2-.2-.4 0-.6h.1c.1-.7.9-1.4 1.2-2.1h-.2c.6-.8 1.3-1.6 1-2.4z"/><path id="Fill-17" class="st1" d="M.3 41.6l.4 7.8L.6 54h100.8V37.7l-.4-.4-.3-.9-.6-1-1.1-1.1v-.7l-.2-.3v-.6l-.4.1V32h-.1v-.1h.1l.2-.3v-.9l-.2-.1v-1c0-.5-.1-1.1-.2-1.6-.5-2.3-2.3-4.2-4.6-4.8l-.7-.2h-.1v-.3l-.3-.6h-4.6c-.2.6-.3 1.2-.5 1.8-1.9 1.2-3.1 3.3-3.1 5.7 0 .6.1 1.1.2 1.7h-.2v.6h.3v.1h-5.4l-.2-.5-.1-.1-.3-5.4v-.1l-.3-.3-.5-.3-.6-.2-.2-.1h-.3l-.5-.2v-1.3l-.1-.1-.1-.1-.1-.1-.6-.2v-7.4l-1.7.6-.1-.4c0-.1-.1-.3-.1-.4-.3-1.2-.6-2.2-1.1-3.2-.1-.2-.2-.5-.3-.7-1-2.1-2.6-4.4-4.5-6.1l-1.9-1.7c-1.6-1.1-3.2-1.9-5-2.5C58.5.5 56.3.1 54 .1c-9.7 0-17.7 7.2-19.6 16.5h-1.1l-.1.4v5.2l-.4.2-.1 1.1-1.9 1.5-.9-.1-.4.6.1 4.4-.6.1v2.1H15.7c.5-.9.8-1.8.8-2.9 0-3.2-2.7-5.9-6-5.9s-6 2.6-6 5.9c0 .6.1 1.1.2 1.6h-.4v1.6h.2v.6l-.5.5L2.5 35l-.9 1.6-.5 1.1-.5 2.1v.9H.2l.1.9z"/><path id="Fill-18" d="M84.3 31.3h14.2l-.1-.7-.1-.1v-1c0-.5-.1-1.1-.2-1.6-.5-2.3-2.3-4.2-4.6-4.8l-.8-.2h-.1v-.3l-.1-.6h-4.6c-.2.6-.3 1.2-.5 1.8-1.9 1.2-3.1 3.3-3.1 5.7 0 .6.1 1.1.2 1.7h-.2v.1zm-74-8c-3.3 0-6 2.6-6 5.9 0 .6.1 1.1.2 1.6h-.3v.1H12v.4h3.9c.3-.7.4-1.4.4-2.1 0-3.3-2.7-5.9-6-5.9zM57.9.7L53.8.1c-9.7 0-17.7 7-19.6 16.4.6-.3 1.1-.7 1.8-.9l.1-.7.2-.3.4.5v.5l1.3-.5c1.6-.5 2.1-.5 4-.9v-.8l.5-.5.4.4v.7c2.3-.4 4.8-.7 7.4-.8v-.6l.6-.5.9.5v.4c3.8-1.2 6.5-4.5 6.5-8.4 0-1-.5-2.9-.9-3.8l.5-.1z" fill-rule="evenodd" clip-rule="evenodd" fill="#d1d3d4"/><path id="Fill-19" class="st0" d="M28.4 37h-2v.1l2-.1zm-11.7-1.9h11.8V35H16.7v.1zm11.7 1.2h-2v.1l2-.1zm0 2.3h-2v.1l2-.1zm0-.8h-2v.2l2-.2zm-6.7-1.4h2v-.1l-2 .1zm-4.7 4h2v-.1l-2 .1zm2-1.8h-2v.1l2-.1zm7.4 1.8h2v-.1l-2 .1zm-2.7-1.8h-2v.1l2-.1zm-2 .9h2v-.1l-2 .1zm2-1.7h-2v.1l2-.1zM19 39.4h-2v.1l2-.1zm30.8-18.7l.6-1.8.1-6.3.4-.3-.1-.1-.4.3-.1 6.3-.6 1.8.1.1zm.4 32.8l-.5-32.8h-.2l.7 32.8zm-1.4-35h.8v-4c-.3 0-.5 0-.8.1v3.9zm-.6 9.6h.9v2.3l-.9.1v.1l1-.1V28l-1 .1zm-1.9-9.5v-3.9c-.3 0-.5.1-.8.1v3.9c.3 0 .5-.1.8-.1zm.9 15.1l-.1-.1h-.6l-.3.1v3l-.1.2.2.1.2.1.1-.2-.2-.1h-.1.5l.1-.1h.4l.1-.1v-2.9zm12.1 7.7V50l-.1.1v.6l.1.1v-9.4zm-30.9-2h-2v.1l2-.1zm15.7-3.5h-.3l-.2-.1h.4V35h-.3l.4-.1v-1h-.7l-.3.1.1 2.8-.2.3h.4l.1-.4-.2-.1h.8v-.7zm.6-17.1V15c-.3 0-.5.1-.8.1v3.8c.2-.1.5-.1.8-.1zm-2.5 12.3h1v-2.3l-1 .1v.1l.9-.1V31l-.9.1zM31.7 54zm2.6-36.4V20c.1 0 .1 0 .2-.1v-2.5c0 .2-.1.2-.2.2zm-3 14h-.1v.1l.1-.1h.1v1.6h-.2v.1h.2v-1.8h-.1v.1zM14 32.9l.5-.1v-.1h-1.6v2h.2v-1.8h.9zm17.9.2h.3v-1.9h-.1l-.3.1v.1l.2-.1V33l-.1.1zm.3 4.8l-.1-.1v-.1l-.1-.1v-.9l.1-.1-.3-.3-.2.2v2.1h.2-.2v.5l-.1.3.3.1.1-.4h-.1.2V39h.1v-.4H32V38l.2-.1zM19 37.8h-2v.1l2-.1zm11.9-6.6zm0 2.4v-1.8h-.2l-.1.1v.1l.1-.1h.1l.1 1.7h-.3v.1l.3-.1zm4.3-16.3v2.6c.1 0 .1-.1.2-.1v-2.6c-.1 0-.1.1-.2.1zm.4-.2v2.5c.1 0 .1-.1.2-.1v-2.4h-.2zm-.6.3c-.1 0-.1.1-.2.1V20c.1 0 .1 0 .2-.1v-2.5zm-4.7 14.7l-.1.1-.2.1v.1l.2-.1v1.5l-.2.1v.1l.3-.1v-1.8zm2.2 16.4v-.7l-.1-.3-.3-.1h-.3l-.2-.4-.6-.3h-.1l-.1-.1.1-.1h.1v-1l-.1-.1-1-.3-.2.1-.1-7.3-.2-12.2v-.2l.3-.4 1 .1v-.1.1l1.8-1.4v.5l-1.6 1.3h-1V32c.2-.3.6-.3 1-.6v-.1h-.1v-1.8c0-.8.7-1.4 1.5-1.4h.1l.2 21-.1-.6zM.2 44.8v.6-.6zM5 40.4l.4-.7.2-.2.6-.7.4-.4.6-.4 1.1-.5h.2l.5-.2v3.4H4.9l.1-.3zm10.4-4V36l.1-.1.9.2v2.1h-1.1l.1-1.8zm4.7 0V36l.3-.1h.5l.5.1v2.3h-1.2l-.1-1.9zm4.6 0V36l.3-.1h.5l.5.1v-.1h.2v2.4h-1.4l-.1-1.9zm8.5 15.1h-.1l-.2-1-.2-26.1v-1.8l3.2-2.5h.1l.3-5.1h-.2v.7c-.1 0-.1 0-.2.1-.3.1-.6.3-.9.5-.2.1-.3.2-.5.3.1-.1.3-.2.5-.3.3-.2.6-.4.9-.5.1 0 .1 0 .2-.1l-.3 4.3-1.6 1.2-.1-3.7H34l.1 3.8h.1l-1 .7v-5.3h.9v-.2H33v.2h-.1v5.4h.2l-.5.4v.1h-.2v1l-1.9 1.5-.9-.1-.3.5v4.4l-.3.1v.1h.3l.1 7.9s.1 4.4.1 7.3l-.4-.1-.2.1V47l-1.7-.3h-.3l-.5.3-2.9-.3-.3-.4v-.1l.1-.1h-1l-.1-.1h-.7l.1-.1H21l-.4-.1-.1.1-.5-.2-2.1-.1-.9-.2-2.4-1h-1.5l-.5-.1H12l-.2-.1.1-.2h-.2l-.2.1-.2-.1-.9.1-.1.1h-.5l-.8.6-.6.2h-.7.1l.1.1-.2.1h-.5l-.2.3-.4.2h-.3v.1h-.2v.2l-.3.2-.6-.2-.2.2h-.1l-.2-.1v-.2l-.9-.1-.3.2h-1v1.9-1.1l-.5-.1-.1-.1v-.1l-.4-.1H.6l-.1.6-.1-1.3v-1c0-.4-.2-3.4-.2-3.9H29v3.8h.1L29 31.4l.1-.7V30h-.3v2h-.3v.2h.2l.1 8.4H26v-4.8h-.3v-.1l-1-.2v.1l-.1-.2-.4.2.1.2H24v4.8h-.2l-.1-.3.1-.1-.1-.6.1-.1-.1-.5.1-.2-.1-.5.1-.1.1-.1-.1-.5.1-.9h-.1l-.1.7h-2v.1h2v.2l.1.5-.1.1V38l.1.5-.1.2.1.5-.1.1.1.6-.1.1-.1.1h-2v.1h2l.1.3h-2.4v-4.9l-1.1-.2v.1l-.1-.2-.4.2.1.2h-.3v4.8h-.3l-.1-.3.1-.1-.1-.6.1-.1-.1-.5.1-.2-.1-.5.1-.1.1-.1-.1-.5.1-.9h-.1l-.1.9.1.5-.1.1V38l.1.5-.1.2.1.5-.1.1.1.6-.1.1-.1.1.1.3h-2.6v-4.5l.1-.3h-.1v-.1h-.3l-.7-.2v.1l-.1-.2-.4.2.1.2h-.2v4.8h-.5l-.1-.2.1-.1-.1-.6.1-.1v-.1l-.1-.5.1-.2h-.1.1l-.1-.6-.1-.1.1.1.1-.1v-.2l-.2-.6.1-.9H14l-.1.9H10v.1h3.9l.1.5v.1h-4v.2h4l.1.5-.1.2h-4v.1h4l.1.5H10v.1h4l.1.6v.1H10v.1h4-.1l.1.2H9.7V36l2.4-.1v-.6H7v.4l-1.3.7-1.3 1.1-.9 1.2-.5.9-.4 1H.5v-.8l.5-2 .4-1.1.9-1.6 1.3-1.3.8-.6.5-.3.1-.3h5v-.2H4.8v.1l-.1.2-.3.3-.9.6L2.3 35l-.9 1.6-.5 1.1-.5 2.1v.8H0v.2l.2 3.9V54H31l1.8-.3v-.4l-.1-.1-.4-.2-.2-.3 1-.6v-.3l.1-.3zm-2.5-11.6h.3V37h-.3v2.9zm-8.9-6.8h.7V33h.9v-.1h-1.8v1.8h-.1v.1h.2v-.1h.1v-1.6zm-2.5-.1h1.8v-.1h-2v1.9h.2V33zm5 1.8v-1.7h1.5V33h-1.7v1.8h.2zM19 37h-2v.1l2-.1zm0-.7h-2v.1l2-.1zM17.5 33l1-.1v-.1h-2v1.9h.2v-1.8h.8zm10 0h-.9v1.8h.2v-1.7h.7V33l.9.1V33h-.9zM9 32.9l1-.1v-.1H7.9v2h.2v-1.8H9zm-3.4 0h1.9v-.1H5.6v.1zm6.2-.7H4.1v-1.1l.6-.1h7.1v1.2zm-7.6-3c0-3.2 2.7-5.9 6.1-5.9h.6c1.5.4 2.6 1.9 2.6 3.6 0 1.8-1.2 3.3-2.9 3.6-.3.1-.7.2-1.1.2H9v.1H4.4c-.1-.5-.2-1-.2-1.6zm7.6 3h2.1l.1.1v.2h.9l-.2-.1H28v-.2h-9.9v-.1l.2-.3v-.9l-.2-.1v-.3l-.1-.1v-1.2l.4-.2v1.4h.6v-.8c0-.4 0-.8-.1-1.2l-.5-1.7c-1.1-2.9-4.3-5-7.8-5v.3c.4 0 .9.1 1.4.2l-.3.6h-.3v.1c-.4.1-.8.2-.9.2v.1h-.3c-3.4 0-6.2 2.7-6.2 6 0 .5.1 1.1.2 1.6h-.1v1.5h7.7v-.1zm.5-7.9c0 .1 0 .1 0 0zm-.6 8.6l1-.1v-.1h-2.1v2h.2v-1.8h.9zm2.9 2.1H7.2v.1h7.4V35zm43.2-1.7l-.3-.1v.2l.3.1v2.4h.1v-2.5h-.1v-.1zm-22.6 3.9v.8h.6l.1-.1v-.7h-.7zm0 1.1h.4V38h-.4v.3zm.3-8c.3 0 .5 0 .7-.1v1.9l-.7.1v.1l.7-.2V30c-.3.1-.5.2-.7.3zm2.7 7.5h.1v-3.3h-.1v3.3zm-3-1.6v.8h.5l.2-.1v-.7h-.4v-.1h.2l.2-.1v-.9h-.4l-.3.2v.9l.2-.1v.1h-.2zm2.7-4.4v-2.2l-.7.2v.1l.6-.2.1 2.1-.7.1v.1l.7-.2zm-.3 3l.1.1h-.3v2.7h.1l-.1.2.3.1.1-.2-.2-.1h.2V35l.2-.2-.2-.3-.2.3zm35.3-20.4zm9.8 20.5v.2l11.6-.1v-.2l-11.6.1zM52.6 18.3h.7v-4h-.7v4zM38.9 31.5h.7v-2.2h-.1l-.7.1v.1l.6-.1v2.1h-.5zm-4.7-.9l.7-.1v1.8l-.7.2v.1l.7-.2v-2h-.1l-.6.2zm60.4 4.8h-.3v-.2H82.6v-.5h.1l.2.1.1-.1v.1l6.8-.2H92v.1h.3v-.1h1.3v-.1h-1.3v-.1c0-.7.8-1.3 1.7-1.3h.5v1.3l-.1.1.1.2.2-.1v.8zm-11.7-.9l.1-.4.1-.2-.2-.1h-.1c.2-.3.8-.6 1.4-.8h.7v1.4h-.2v.1h-1.8zm4.4-1.5v1.5h-1.9c0-.1-.1-.2-.1-.3 0-.6.9-1.2 2-1.2zm2.3 0v1.4h-2v-.2c0-.7.8-1.3 1.7-1.3l.3.1zm2.2 0v1.4H90v-.2c0-.7.8-1.3 1.7-1.3l.1.1zm.2-.6v-.2h-5.5v.1-.1l-7.3.1v-.2H92v.2h2.2l.1.1v.2h.3v.2H82.9v.1h-.2v-.4h-1.6l5.5-.1H92zm-11.9 0v.2h-.8l-.1-.1.9-.1zm4.4-1h7.2v.5h-7.2v-.5zm7.3-.8c-.1-2.3.2-4.6.8-6.7v.1c1 .7 1.6 1.8 1.6 3.1 0 1.2-.5 2.2-1.4 2.9-.1.1-.2.2-.3.2-.1.1-.2.1-.3.2-.1.1-.3.1-.4.2zm-.6.2h-2c0-3 .4-5.9 1.3-8.6h2c-.4 1.4-.8 2.8-1 4.3-.2 1.3-.3 2.8-.3 4.3zM67.7 15.3c2.2.4 4.7.9 6 1.6l-6-1.6zm-1.2 21.6h-.8v-.8h.3l.1-.1h-.3v-.8h.4l-.3-.1v-1h.6l.2.1-.2 2.7zm-6.1-23.1c1.9.2 4.1.6 5.7 1.1l-.1-.7h-.7l-.1-.6.9-.4.2-.1h.1v2l-.2-.1v-.2l-5.8-1zm3.8 23h-.4l-.1-.1h-.3l-.1-.1v-2.9h.5l.3.1v3zm-1.9 15.8l-.4-.1-.3.1-.1-.1v-.3h-.2.1l-.1-.2.2.1.1-.6h.2v-.6h-.3l-.1-.1v-.2l.6-.2h.3v.1l-.1.3v.8l.3 1h-.2zm9.2-37.9l.2-.1h.1v1.5l-.2-.1-.1-.6h-.6V15l.6-.3zm-13.2.4V23l-.4-.4-.5-.3-4.8-3.3h-.4l-.3-5.7h.1v.1h5.9v-.1h.3l.1 1.8zm28.2 15.6c0-3 .4-5.9 1.3-8.6h2.1c-.2.8-.5 1.6-.6 2.4-.5 2-.7 4.1-.7 6.2h-2.1zm14.4 6.6l-.3-.8-.6-1-1-1.1v-.7l-.2-.3V33h-.5v-.9h-.1V32h.3v-.8l-.1-.2v-1.5c0-3-2-5.6-4.7-6.3l-.8-.2v-.2c-.1-.2-.1-.4-.2-.6V22h-2.2c-.9 2.8-1.3 5.7-1.3 8.7H91h-2.2l.3-.1c0-2.7.4-5.3 1.1-7.8-.1-.2-.1-.4-.2-.6v-.4h-2.3c-.2.7-.4 1.3-.5 2-1.9 1.3-3.1 3.4-3.1 5.7 0 .5.1 1 .2 1.5h.1c-.1-.5-.2-1-.2-1.5 0-2.2 1.1-4.3 2.9-5.6-.5 2.1-.7 4.3-.7 6.6h2.1-2.3v.5l5.8.1h-.3v.2h-7.3v.6h-5.2v-.3h-.4l-.1-.1v-5.7l-.3-.3-.5-.3-.6-.2h-.4l-.2-.1-.5-.2v-1.3l-.1-.1-.1-.1v-.1h-.9v-7.4l-1.7.6c-.1-.3-.1-.6-.2-1v-.1l-.1-.1c-.1-.2-.1-.4-.2-.6v-.1c0-.1-.1-.2-.1-.4v-.2c-.1-.2-.1-.3-.2-.5v-.1c0-.1-.1-.2-.1-.3-.1-.2-.2-.5-.3-.7-.1-.3-.2-.5-.3-.8-.1-.2-.2-.3-.3-.5-.1-.3-.3-.6-.5-.8-.1-.1-.1-.3-.2-.4-1.4-2.3-3.2-4.2-5.3-5.8l-.2-.1c-1-.7-2-1.3-3-1.8-2.6-1.3-5.5-2-8.5-2-9.7 0-18 7-19.9 16.6h.4C36.3 7.2 44.4.3 53.8.3c1.3 0 2.5.1 3.7.4.3.9.8 2.7.8 3.6 0 3.9-2.7 7.2-6.3 8.4v-.2l-.7-.3.2 6.6-.8 2.1-.1 2.6.1 4.2h.1v.2l.4 25.3H51v.2l-.3.3-.4.2-.3.1h2.9l-.4-9.6-.2-4.4v-1.5l-.2-2.5-.2-5.1h-.2v-.5h.4v-2.1l-.1-.2h-.3v-.5h.2v-3.9h.3c1.8.3 3.2 1.2 3.2 1.9l-.1 1.7h3.4v-.2l-.1-1.9V12.5h-.5v-.3l.7-.5.7.4v.1l.1.1v38.8h-.5V51l-.1.3v.3l-.1-.1-.2-.4-.2.4-.2.3-.4.4.1.1.1.1.4-.4.2-.2.2-.1h.4l.3-.2.6-.1.4-.2.1-.1h.3l.1.2-.1.4v.1l.1.2.1.2H61l-.1.1-.7.4-1.6.9-.6.4h3.8l.2-.1-.1-.1v-.1h.1l.6-.3-.1.4h.4l.1-.5h.3l.1-.1.1.2-.5.4.1.1.1.1.3-.3h.2v-.6h-.2l.1-.1.2-.2.3-.1.2-.1.2-.1.1.1v.4h.1v1h36.6V37.3h-.4zM47.1 18.6c.3 0 .5 0 .8-.1v-3.9c-.3 0-.5 0-.8.1v3.9zm7-4.3v4h.7v-4h-.7zm1.5 4h.7v-4h-.7v4zm1.5.1h.7v-4h-.7v4zm-.6 14.8l-.2.1v3.4h.3l.7-.2v-3.2l-.1-.1h-.7zm-.6-2.7l.9.1v-2.5h-.9v.1h.8v2.3h-.8zm-1.6 22.1h.5v-.1l-.5.1zm3.5-22.1l.9.1v-2.5h-.9v.1h.8v2.3h-.8zm-3.4-.1H54v.1h.2l.2-.1.5.1V28H54v.1h.9v2.3c-.1.1-.5 0-.5 0zm-8.2.3h1v-2.4l-1 .1v.1l.9-.1v2.3h-.9zm-2-2.1h.9v2.2l-.9.1v.1l1-.1v-2.4l-1 .1zm8 1.9l.9.1V28h-.9v.1h.8v2.3l-.8.1zM41 15.6v3.6c.2 0 .4-.1.6-.1v-3.6c-.3 0-.5.1-.6.1zm-.7.2c-.2 0-.4.1-.6.1v3.5c.2 0 .4-.1.6-.1v-3.5zm-2.9 4c.2 0 .4-.1.6-.1v-3.3c-.2.1-.4.1-.6.2v3.2zm2.8 2.3l2-2.5.1-5.4v-.6l.2-.3-.1-.1V13l-.2.3v.8-.1c-1.6.3-3 .6-4.3 1l.1-.1v-.2l-1.4-.2.3.4v5l-3.2 2.6v.1l.1 6.9v.1l.1 3.3v.5s0 1.2.1 2.6v15.4h-.3l.1.4h-.2v.2l-.1-.1-.2.3.1.1.1.1.1-.2v.1l.4-.1.4.3.2-.1h.1V52h-.2l-.2-.1.2-.3-.2-.1h.1l-.1-9.9v-8.9l-.3.4v-2.8l.7-.4.1-.1v-3.5h.1c.8.3 1.5 1.1 1.5 1.8v1.3l1.7-.4v-6L37 20.4v-4.8l.5-.4c1.4-.4 2.9-.8 4.6-1.1 0 .7-.1 4.9-.1 5.3l-2 2.5.2 31.5H40l-1.2.6h1.7v-.4h-.1l-.2-31.5zm13.9 14.1v-3h-.8l-.3.2v3.1l.1.1.1.1.2-.1-.1-.1h.3l.5-.3zM38.6 19.6c.2 0 .4-.1.6-.1V16c-.2 0-.4.1-.6.2v3.4zm7.8 6.6l-.2-3.1-2.9-4.2-.1-4.6h-.1l.1-.1.2-.1.2-.1.3-.1c2.2-.3 3.9-.5 6.5-.6v-.2c-2.3.1-4 .2-5.9.5l-1.8-.6.3.3v1l.1 4.8-1.7 2.8-.2.3H41l.2 3.5.1 2.5v3.2h-.1l.1 3.8v18.6h3.6-.1l-.6-.3H44l-.2-.1-1.4-.1-.5-17.7.1-4.1h-.1V31h.1v-2.3h-.1v-.5h.1v-.3l-.1-3.7h.1c.7.3 1.3 1.3 1.3 2.1v1.6h.4l.9-.1 1.2-.1.7-.1-.1-1.4zm8.9 27.7v-.7l-.5-.6h-.5l-.3.9-.1.5h1.5l-.1-.1z"/><polyline id="Fill-20" class="st0" points="8,32.3 4.2,32.3 4.1,33.2 4.4,33.2 4.4,33.1 4.2,33.1 4.2,32.4 7.9,32.4"/><path id="Fill-21" d="M19.7 49.4l-.2.4h.1l.1-.4zm-3.1 2.5c-.1-.1-.1-.1-.2 0 .1-.1.2-.1.2 0zm-2.9.9c.1.1.4.1.3.2-.4-.1.1 0-.3-.2zm.3.6c0-.1-.2-.2 0-.2v.1c.1 0 .1.1 0 .1zm2.1-1.6c0-.1 0-.1 0 0zm0-.2c.1 0 .1 0 0 0zm7.5-1c.1-.2-.3-.3 0-.5h.1c.2-.7 1.3-1.3 1.7-1.9h-.3c.7-.6 2.1-.7 1.7-1.5-.3.4-2.2.1-1.9.6-.5 0-.3.3-.8.3-.9.4-.4.8-1 1.2-.2 0-.3-.1-.6-.1l.3-.4-.5.2c-.1-.1.4-.3 0-.5 0 .4-1 .8-.9 1.2.3-.1.4-.3.6-.4.2 0 .5-.1.7 0 0 .6-.8.8-1.3 1.3-.1.1-.4.3-.6.2 0-.1-.2-.1-.2-.2-.1.2.7.2.3.4l-.6-.2c.6.3-.5.2-.3.5-.3 0-.4-.2-.2-.3-.3.1.1.2-.1.3l-.4-.3c.4.3-.4.2-.7.2.1.1.6.1.4.3-.2 0-.3 0-.4-.1.1.1.3.2.2.3-.2 0-.2-.2-.4-.2-.1.1-.1.1-.4.1 0 .2.3.1.4.2-.4.1-.7-.2-1.2-.3-.1-.2.1-.4 0-.5l-.2.3c-.2-.1-.7 0-.7-.2-.6.2-.8.6-1 .9h.4c-.1.2-.3.1-.5 0 0 .1.4.3.6.4-.6.1-.4.2-1.1.2l.4.1c-.5 0 .1.2-.3.3-.1 0-.1-.1-.2-.2 0 .1-.5 0-.5.1l-.3-.2c-.1.1-.1.3-.5.1.1.1.1.1.1.2-.1.2-.3.4-.4.6l-.3-.1c.3.2-.5.3-.1.6h-.2l.6.4h4.6c0-.1.1-.1.3-.2.2 0 .1.1.1.2-.1-.3.7-.6 1-.9.8-.2 1.6-.7 2.5-1l-.1-.1c.6 0 .6-.4 1-.5h-.3c0-.2.2-.2.3-.4l.5.1c.1-.2-.2-.2-.3-.3.4 0 .6-.4.7-.4.3-.1.2.1.3.1zm-1.1-3.1l-.2.2h.2v-.2zm4.2 3.3l-.1.1.1-.1zm-5-3.5l-.3-.1v.3c.3 0 .2-.1.3-.2zm-4-1.7l-.1.1h.1v-.1zm-2.1.7l-.2.2.2-.2zm1.2-1l-.1-.1-.1.1c.2.1.1.1.2 0zm.3.2zm.2-.1l-.2-.1-.1.2c.2 0 .1-.1.3-.1zm8.9 5.3H26v.2c.2 0 .1-.1.2-.2zm10.3 3.1l-2.1-.9-2.4-.5-2.1 1.4-.2.2h8.7l.3-.2 1.4-.7-2 .6-1.6.1zm-8-4.7V49c.2-.1.3.1.3.1.1-.2-.3-.1-.4-.2l.1.2zM54.3 54h.2-.2zm7.8-1.3l.2-.1-.3-1 .1-1 .2-.2v-.1h-.4l-.6.3-.1.3.2.2v1.2l-.3-.3-.1-.7-2.1.6-.9.7-.3-.3-.5.4-.1.8h-.4l-1.4.5H58l.4-.4 2.7-1.3v-.2l.1.2.1.1-.1.3.2.1.3-.1h.4zm-33.5-4c0-.1-.2 0-.3 0l.2.1.1-.1zM25 52.4l.1-.3-.1.3zm1-.8l.3-.3c.1 0 .2-.1.3 0h-.1l.1-.2-.2.1c0-.1.2-.2 0-.3 0 .2-.5.5-.4.7zm2.7-2c-.2.3-.9.6-.7.9-.2 0-.1.2-.4.2-.4.3-.1.6-.4.9h-.1c0 .4-.4.6-.6 1-.1.1-.2.2-.3.2 0-.1-.1-.1-.1-.1 0 .1.3.2.2.3l-.3-.2c.3.2-.2.2-.1.4-.2 0-.2-.1-.1-.2-.1.1 0 .2 0 .2l-.2-.2c.2.2-.2.1-.3.1.1 0 .3.1.2.2h-.2c.1 0 .2.1.1.2-.1 0-.1-.1-.2-.2 0 .1-.1.1-.2.1 0 .1.1.1.2.1-.2.1-.3-.1-.6-.2v-.4l-.1.2c-.1-.1-.3.1-.3-.1-.3.1-.4.4-.4.6h.2c0 .1-.2 0-.3 0 0 .1.2.2.3.2h2.6c.1 0 .1-.1.2-.1h-.1c.3 0 .3-.3.5-.4H27c0-.2.1-.2.1-.3h.2c0-.1-.1-.1-.2-.2.2 0 .3-.3.3-.3.1 0 .1.1.1.1 0-.2-.2-.2 0-.4h.1c.1-.5.6-.9.8-1.4h-.1c.2-.2.7-.7.4-1.2zm-13.1-2.8l-.2.3.2-.3zm12.9 2.5c-.1 0-.1-.1-.2-.1-.1.1.1.1.2.1zm-16.1-1.7c0-.1-.1-.1-.1-.1.1.1-.1 0 .1.1zm-6.2-2l-.3.4.3-.4zm1.3.5l-.1-.1.3-.3-.3.1c0-.1.3-.2.1-.4-.1.4-.8.6-.8.9.2-.1.3-.2.4-.3.2.1.3 0 .4.1zm3.6 2.9c-.1 0-.1-.2-.2-.2-.2.1 0 .2.2.2zm.1-.1c0-.1-.1-.1-.2-.2.2.2-.1.1.2.2zm0-.4c.4 0 .3.2.3.3.2-.3-.3-.3-.4-.4l.1.3v-.2zm-8.6 2c0-.2 0 0-.2-.1.1-.3.3-.1.6-.1.1-.2-.2 0-.2-.1.4 0 0-.3.4-.4.1.1 0 .1 0 .2 0-.3.5-.4.8-.7.5-.1 1.1-.4 1.7-.6l-.1-.1c.3 0 .4-.2.7-.3h-.2c0-.2.2-.2.3-.3l.3.1c.1-.1-.1-.2-.1-.3.3 0 .4-.3.5-.3.1 0 .1.1.1.2.1-.2-.1-.3.2-.4h.1c.3-.6 1.1-.9 1.5-1.5h-.1c.6-.5 1.4-1 1.4-1.6-.3.3-1.3.5-1.2.9-.3 0-.3.3-.6.2-.6.3-.4.7-.9 1h-.1c-.2.5-.7.6-1.1 1-.1.1-.3.2-.4.1 0-.1-.1-.1-.1-.2-.1.2.3.3.1.4l-.3-.3c.3.3-.3.1-.3.4-.2-.1-.2-.2 0-.3-.2 0 0 .2-.1.3l-.2-.3c.2.3-.3.1-.4.1.1.1.3.2.2.3-.1 0-.1-.1-.2-.1.1.1.1.2 0 .3l-.2-.2c-.1 0-.1.1-.2.1 0 .1.1-.4.1-.5-.2.1-.3.5-.6.4 0-.2.2-.3.2-.5l-.2.2c-.1-.1-.4 0-.4-.2-.4.1-.6.4-.8.6h.2c-.1.1-.2 0-.3 0 0 .1.2.3.3.4-.4 0-.3.1-.7 0l.2.1c-.3 0 0 .2-.3.2 0 0 0-.1-.1-.2-.1.1-.3 0-.3.1l-.1-.2c-.1.1-.1.2-.3 0 .1.3-.3.4-.3.6l-.2-.1c.1.1-.1.2-.2.3v2.1c0-.2.6-.2.5-.5 0-.1.4 0 .5-.1l-.2-.1c.2 0 .8-.2 1.3 0zm-2.3.8v-.1.1zm2.6-4.4l-.1.2c0-.1.1-.1.1-.2zm-2 1.2c-.2 0 0 .1 0 .1v-.1zm10.2 1.1v-.1c-.1-.1 0 0 0 .1zm1.2-1.4c.1 0 .1 0 0 0-.1-.1 0 0 0 0zm.5.2l-.1.1c.1 0 .2 0 .1-.1zm66.1-2.4l.3-.2 2-.9-1.4.1-.5.1-.1-.1-.4.1-.6.1.1.1-.7.1-.1.1h-1.1l.1.1v.1l-.5.3-3.1.4-.5-.3h-.3l-1.8.3-.3-.2.1-.2-2.4.4-.8.2h-.2V46l-.1-.1v.5l-.4.1h-.3l-.1-.3h-.1v.5l-2.7.6-.5.3-.2.3-.1.1H62v.4l.8-.1 2.7-.8.2-.2.5-.3.9-.1 1.2.2.8.4h.2l.4-.9h1.2l.8.4v.4l-.9.7v.3l-.5.3-.1.1v.1l.1.1 2-.7.4-.1h.3v.1l.2.1v1h-.5l-.1.2-.2.2.1.2.1.1.8.1.3-.2.1-.1-.3-.3V49h.5l.1.1.2-.1.3-.6v-.1l.4-.2h.3l.2-.1h.3v.1l.3.2h.1l.2-.4.7-.5.8-1.2 1-.6zM13.6 47v.1c-.1 0 0 0 0-.1zm-.6 1.2zm-.5 2.1c0-.1.3 0 .4-.1l-.2-.1c.3 0 .7-.2 1.2 0 0-.2 0 0-.2-.1 0-.3.3-.1.5-.1 0-.2-.1 0-.2-.1.3 0 0-.3.3-.4.1 0 0 .1 0 .2 0-.2.4-.4.6-.6.4-.1.9-.4 1.4-.6.3 0 .3-.2.6-.3h-.2c0-.2.1-.2.2-.3l.2.1c.1-.1-.1-.1-.1-.3.2 0 .3-.2.4-.3.1 0 .1.1.1.2.1-.1-.1-.3.1-.4.2-.5.8-.8 1.1-1.3h-.1c.4-.4 1.5.3 1.4-.3-.2.2-1.6-.1-1.5-.3-.1.1-.1.1-.3.1-.5.2-.3.6-.7.8-.1 0-.2-.1-.3-.1l.2-.3-.3.1c0-.1.2-.2.1-.3 0 .3-.6.5-.6.8.1-.1.2-.2.4-.3h.3c-.1.4-.5.6-.8.9-.1.1-.2.2-.3.1 0-.1-.1-.1-.1-.1-.1.1.3.2.1.3l-.3-.2c.2.3-.3.1-.2.3-.2 0-.1-.2-.1-.2-.2 0 0 .2-.1.2l-.2-.2c.1.2-.2.1-.3.1.1 0 .3.1.2.2-.1 0-.1 0-.2-.1.1 0 .1.2.1.2-.1 0-.1-.1-.2-.2-.1 0-.1.1-.2.1 0 .1.1.1.2.2-.2.1-.3-.2-.5-.3 0-.2.1-.3.1-.4l-.2.2c-.1-.1-.3 0-.3-.1-.3.1-.5.4-.6.6h.2c0 .1-.2 0-.3 0 0 .1.2.2.3.3-.3 0-.2.1-.6.1l.2.1c-.2 0 0 .2-.2.2 0 0 0-.1-.1-.1 0 .1-.2 0-.3.1l-.1-.2c-.1.1-.1.2-.2 0 .1.2-.2.3-.2.5l-.1-.1c.1.2-.3.2-.1.4h-.1l.1.2c-.1 0-.3-.1-.2-.1-.1.1-.2.2-.4.3.2.1.1.3 0 .4-.7.4-1 1-1.2 1.6-.1.1.1.3.1.4l.2-.2c.1 0 .4.1.5.1l-.2-.1c0-.2.2 0 .1-.2l.3.2c-.1-.1.1-.1.2-.1H11c.2 0 .2 0 .4.1l-.2-.1c.1.1.2-.2.4 0 0 0-.1-.1 0-.1l.2.1c0-.1.1-.2.2-.1 0 .1.1.1.1.2.3-.2-.5-.4-.2-.7l.1.1v-.1h.2c-.3-.3.4-.3.3-.5zm1.2-3.1zm-2 .9c0-.1-.2-.1-.4-.1l.2.2.2-.1zm6.9-2.9zm-7.7 4.3c-.3.3-1.4.6-1.4 1.2-.3 0-.3.3-.6.2-.7.3-.5.8-1 1.2-.1 0-.2-.1-.3-.2l.3-.4-.3.1c0-.2.3-.3.2-.5-.1.4-.9.7-.9 1.1.1 0 .3-.2.5-.3.2 0 .3 0 .4.1-.2.6-.8.8-1.2 1.2-.1.1-.3.2-.4.1 0-.1-.1-.1-.1-.2-.1.2.3.3.1.5l-.3-.3c.3.4-.4.2-.3.5-.2-.1-.2-.2 0-.3-.2.1 0 .3-.2.3l-.2-.4c.2.4-.3.1-.5.1.1.1.4.2.2.3-.1 0-.2-.1-.2-.1.1.1.1.2.1.3h2.5l.3-.3c.1.1.1.2.1.2.1-.2-.1-.4.2-.6H8c.3-.7 1.2-1.2 1.6-1.8h-.2c.6-.6 1.5-1.2 1.5-2zm70 4.5c0-.1.1-.1 0-.1v.1zm-5.3 0h-.4l-.2-.2-.3.1-.1.1h2l-.6-.3-.4.3zm16.7-6.8c.1 0 0-.1 0-.2-.3 0-.1.1 0 .2zm-20.1 6.1v-.2l-.1-.1H71l-1.2.4-.9.6h3.3l.4-.5v-.1l-.1-.1h-.3zm28.8-3.5l-.2.3c-.1-.1-.4 0-.4-.2-.4.1-.5.4-.6.7h.2c0 .1-.2 0-.3 0 0 .1.2.2.3.4-.4 0-.3.1-.7.1l.2.1c-.3 0 0 .2-.2.2-.1 0-.1-.1-.1-.1 0 .1-.3 0-.3.1l-.2-.2c-.1.1-.1.2-.3.1.1.2-.2.4-.2.6l-.2-.1c.1.2-.3.3-.1.5h-.1l.1.3c-.1.1-.3-.1-.3-.1-.1.2-.2.3-.4.3.2.2.1.3 0 .5-.4.2-.6.5-.8.8h1.8c0-.2.5-.2.5-.5 0-.1.4 0 .5-.1l-.2-.1c.3 0 .8-.2 1.4 0 0-.2 0 0-.2-.1 0-.3.3-.1.5-.1 0-.2-.2 0-.2-.1.3-.1-.1-.3.3-.4.1.1 0 .1.1.2 0-.1.1-.3.2-.4v-1.9c-.1-.1-.2-.1-.3-.1.1-.5.2-.6.2-.7zm-29.4-1.2h.2c0-.1 0-.1-.2 0zm29.5-4.1v-.2.2zm-6.6.8l-.1.2h.1c-.1-.1 0-.1 0-.2zm-2.1 1.5c0-.1-.2-.1-.3-.3.3.3-.2.1.3.3zm2.5-1.1c0-.1-.1-.1-.2 0h.2zm-88 5c.2 0 .2-.1.3-.1l-.2-.2-.1.3zm.9.3v-.1l-.2.1h.2zm-3.6 2.9v.1h.4c0-.1 0-.1-.1-.2-.1 0-.1.1-.3.1zm-.5-.2c0-.2.2-.4.2-.6l-.2.3c-.1-.1-.4 0-.4-.2-.4.1-.6.5-.8.8h1.6c-.1-.1-.2-.2-.4-.3zM.9 52.1l-.1-.2s0 .1.1.2zm11.6 1.8c0 .1 0 .1 0 0l.2.1c-.2 0-.3-.1-.2-.1zm10.5-.2h.1c0-.1 0-.1-.1 0zm-.2-.2v.1s.1-.1 0-.1zM4.9 52.3l-.3.4h.1l.2-.4zM1 54c0-.1.1-.1.1-.2L1 54zm65.6-.9l-.8.1h-.2v-.1l-.4-.1h-.7v-.5l-.1-.1-.2.1-.2.2-.3.1-.2.2v.1l-.1.1h-.1l-.2.2h-.5l-.6.3h-.2l.1.2-.2.1h4.8v-.3l1.1-.1.2-.2v-.1l-.1-.1-1.1-.1zM87.2 50v-.1l-.1.1h.1zm-1.1-5.8l-.2-.1v.2c.1.1 0 0 .2-.1zm-5 3.2v.2h.1c-.2-.1-.1-.1-.1-.2zm5.5-3l-.1.1h.1v-.1zm-.1 5.3l-.3-.1v.3c.3 0 .1-.1.3-.2zm.2.6c0-.1.3-.3 0-.4 0 .4-.7.8-.6 1.2.2-.1.3-.3.5-.4.2 0 .3-.1.5 0-.1 0-.1-.1-.2-.1l.2-.4-.4.1zm-7.7-2c.3.2-.1.1.3.2 0-.1-.2-.1-.3-.2zm.2.6c.1 0 0-.1 0-.1-.2-.1 0 0 0 .1zm5-3l-.2.3h.1l.1-.3zm.3 5.9l-.2.4h.1l.1-.4zm-1.9-2c0-.2-.1 0-.2-.1 0-.3.3-.1.5-.1 0-.2-.2 0-.2-.1.3-.1-.1-.3.3-.4.1.1 0 .1.1.2 0-.3.4-.5.7-.7.5-.2 1-.5 1.6-.7l-.1-.1c.3 0 .4-.3.6-.4h-.2c0-.2.2-.2.2-.3l.3.1c.1-.2-.1-.2-.1-.3.3 0 .4-.3.5-.3.1 0 .1.1.1.2.1-.2-.1-.3.1-.4h.1c.2-.6.9-1 1.2-1.5h-.2c.5-.5 1.2-1.1 1-1.7-.2.3-1.1.5-1 1-.3 0-.2.3-.5.2-.5.3-.3.7-.7 1-.1 0-.2-.1-.3-.1l.2-.3-.3.1c0-.1.3-.3.1-.4 0 .4-.7.6-.6 1 .2-.1.3-.2.4-.3.1 0 .3-.1.4 0-.1.5-.6.7-.9 1-.1.1-.2.2-.3.1 0-.1-.1-.1-.1-.2 0 .2.4.2.1.4l-.3-.2c.3.3-.3.2-.2.4-.2 0-.2-.2-.1-.3-.2.1 0 .2-.1.3l-.2-.3c.2.3-.2.1-.4.1.1.1.4.1.2.2-.1 0-.1 0-.2-.1.1.1.2.2.1.2s-.1-.1-.2-.2c-.1.1-.1.1-.2.1 0 .1.2.1.2.2-.2.1-.4-.2-.7-.3 0-.2.1-.4.1-.5l-.4.2c-.1-.1-.4 0-.4-.2-.4.1-.5.4-.6.7h.2c0 .1-.2 0-.3 0 0 .1.2.2.3.4-.4 0-.3.1-.7.1l.2.1c-.3 0 0 .2-.2.2-.1 0-.1-.1-.1-.1 0 .1-.3 0-.3.1l-.1-.1c-.1.1-.1.2-.3.1.1.2-.2.4-.2.6l-.2-.1c.1.2-.3.3-.1.5h-.1l.1.3c-.1.1-.3-.1-.3-.1-.1.2-.2.3-.4.3.2.2.1.3 0 .5-.8.5-1.1 1.2-1.3 1.9-.1.1.1.3.1.5.2-.1.1-.2.2-.3.1 0 .4.1.6.1l-.2-.1c0-.2.2 0 .1-.2l.3.2c-.1-.1.1-.1.2-.1l-.2-.2c.2 0 .3 0 .5.1l-.2-.1c.2 0 .3-.3.5 0 0 0-.1-.1 0-.2l.2.1c0-.1.1-.2.2-.1 0 .1.1.1.1.2.3-.3-.6-.5-.3-.7l.1.1-.1-.2h.2c-.3-.4.4-.3.4-.6 0-.1.4 0 .5-.1l-.2-.1c.3-.2.9-.5 1.4-.2zm-1.3-2.1h.2c-.1 0-.1-.1-.2 0zm9.2-1.1c0-.1-.3 0-.5 0l.3.2.2-.2zm-.6.4l.2.3-.1-.2c.4-.1.4.1.4.2.3-.3-.3-.2-.5-.3zm5.6-1.9c-.1-.1-.1-.1-.1-.2h.1c.1 0 0 .1 0 .2 0-.1.1-.1.1-.1h.1c.1.2-.1.1-.2.1zm4.9-6.2h-.2l-1.2.4-.6.2h-.2v-.1h-.8l-1 .3.1.2 2.1.8 1 .7v.5h-.2l-.1.2h-.6l-.8.6h-.4l-.3-.1H97l-.5.9.2.4c-.1 0-.4 0-.4-.2-.4.2-.6.5-.7.8l.6-.4h.5v.1h-.5l-.5.4h-.1s0-.1.1-.1l-.2.2-.3.3-.1.1v.1l.1.1.2-.1h.1l.1.1c.1.1.2.2.2.3-.4.1-.3.2-.8.1l.3.2c-.3 0 0 .3-.2.3-.1 0-.1-.1-.1-.2 0 .2-.3 0-.3.1l-.2-.3c-.1.1-.1.3-.3.1.1.3-.3.5-.3.8l-.2-.2c.2.3-.4.4-.1.6h-.1l.1.4c-.1.1-.4-.2-.3-.1-.1.2-.3.4-.5.4.3.2.1.5 0 .7-.9.6-1.4 1.6-1.6 2.5-.1.1.1.5.1.7.2-.1.1-.2.2-.4.2-.1.5.1.7.1l-.3-.1c-.1-.3.2 0 .1-.3l.4.3c-.2-.2.1-.2.2-.2l-.2-.2c.2 0 .3 0 .6.1l-.2-.2c.2.1.3-.4.6 0 0-.1-.1-.2 0-.2l.2.2c0-.1.1-.3.2-.2 0 .1.1.2.2.3.4-.4-.7-.6-.4-1l.1.1-.1-.2h.3c-.4-.5.5-.5.4-.9 0-.1.5 0 .6-.2l-.2-.2c.4 0 1-.3 1.6 0h.2c.2-.4.6-.9 1.1-1.2.1-.1.2-.3 0-.5.2 0 .3-.2.4-.3-.1 0 .2.1.3.1l-.1-.3h.1c-.2-.2.3-.3.1-.5l.2.1c0-.2.4-.4.2-.6.2.1.2 0 .3-.1l.2.2c0-.1.3 0 .3-.1 0 .1 0 .1.1.1.2 0-.1-.2.2-.2l-.2-.1c.4 0 .3-.1.7-.1-.1-.1-.3-.2-.3-.4.1 0 .3.1.3 0h-.2c.1-.2.3-.6.6-.7 0 .2.3.1.4.2l.1-.2v-5.3h-.9zm-10.2 8.7c-.1 0-.1-.2-.3-.1-.2.1.1.1.3.1zm-.6.3c-.2.4-1.3.8-1.1 1.4-.4 0-.2.4-.6.3-.6.4-.3.9-.7 1.4H87c0 .6-.6.9-.9 1.5-.1.1-.3.3-.4.2 0-.1-.1-.1-.1-.2 0 .2.5.3.2.5l-.4-.3c.4.3-.4.2-.2.6-.2 0-.2-.2-.1-.3-.2.1 0 .3-.1.4l-.3-.3c.3.3-.3.2-.5.2.1.1.5.2.3.3-.1 0-.2 0-.3-.1.1.1.2.2.1.3-.2-.1-.1-.2-.3-.2-.1.1-.1.2-.3.1 0 .2.2.1.3.2-.3.2-.5-.2-.8-.3-.1-.2.1-.5 0-.6l-.2.3c-.1-.1-.5.1-.5-.2-.4.2-.5.6-.6.9h4.8-.2c0-.2.2-.3.2-.4l.3.1c.1-.2-.2-.2-.2-.4.3 0 .4-.4.5-.5.2 0 .1.2.2.2.1-.2-.2-.4 0-.6h.1c.1-.7.9-1.4 1.2-2.1h-.2c.6-.8 1.3-1.6 1-2.4z" fill-rule="evenodd" clip-rule="evenodd" fill="#808285"/></g><g id="Observatory" transform="translate(194.627 27.088)"><path id="Fill-22" class="st0" d="M6.1 22.7V4.2c0-.5-.2-.9-.5-1.3-.4-.3-.8-.5-1.3-.5s-1 .2-1.3.5c-.4.3-.6.8-.6 1.3v18.5c0 .5.2.9.5 1.3.4.4.8.5 1.3.5s.9-.2 1.3-.5c.4-.4.6-.8.6-1.3zm2.5-.1c0 1.2-.4 2.1-1.3 3-.8.8-1.8 1.2-3 1.2s-2.2-.4-3-1.2c-.8-.8-1.3-1.8-1.3-3V4.2C0 3 .4 2 1.3 1.2 2.1.4 3.1 0 4.3 0s2.2.4 3 1.2c.8.8 1.3 1.8 1.3 3v18.4z"/><path id="Fill-23" class="st0" d="M19.6 22.7v-6.3c0-.5-.2-.9-.5-1.3-.4-.3-.8-.5-1.3-.5H16v9.8h1.8c.5 0 .9-.2 1.3-.5.3-.3.5-.7.5-1.2zm-.3-12.3V4.2c0-.5-.2-.9-.5-1.3-.4-.4-.8-.5-1.3-.5H16v9.8h1.5c.5 0 1-.2 1.3-.5.3-.3.5-.8.5-1.3zM22 22.6c0 1.2-.4 2.1-1.3 3-.8.8-1.8 1.2-3 1.2h-4.3V0h4c1.2 0 2.2.4 3 1.2.8.8 1.3 1.8 1.3 3v6.3c0 1.1-.4 2-1.1 2.8.9.8 1.4 1.9 1.4 3.1v6.2z"/><path id="Fill-24" class="st0" d="M35.5 22.6c0 1.2-.4 2.1-1.3 3-.8.8-1.8 1.2-3 1.2s-2.2-.4-3-1.2c-.8-.8-1.3-1.8-1.3-2.9v-1.8h2.4v1.8c0 .5.2.9.5 1.3.4.3.8.5 1.3.5s.9-.2 1.3-.5.5-.8.5-1.3v-3.3c0-1.7-.5-3.1-1.6-4.1-1-.8-2-1.6-2.9-2.4-1.1-1.1-1.6-2.6-1.6-4.6V4.2c0-1.2.4-2.1 1.3-3 .8-.8 1.8-1.2 3-1.2s2.2.4 3 1.2c1 .8 1.4 1.8 1.4 3V6h-2.4V4.2c0-.5-.2-.9-.5-1.3-.4-.3-.8-.5-1.3-.5s-1 .2-1.3.5c-.4.3-.5.8-.5 1.3v3.3c0 1.7.5 3.1 1.6 4.1 1 .8 2 1.6 2.9 2.4 1.1 1.1 1.6 2.6 1.6 4.6v4z"/><polygon id="Fill-25" class="st0" points="47.8,26.8 40.5,26.8 40.5,0 47.8,0 47.8,2.4 42.9,2.4 42.9,12.2 47.8,12.2 47.8,14.6 42.9,14.6 42.9,24.4 47.8,24.4"/><path id="Fill-26" class="st0" d="M58.8 10.4V4.2c0-.5-.2-.9-.5-1.3-.4-.4-.8-.5-1.3-.5h-1.8v9.8H57c.5 0 .9-.2 1.3-.5s.5-.8.5-1.3zm2.5 16.4h-2.4V16.4c0-.5-.2-.9-.5-1.3-.4-.3-.8-.5-1.3-.5h-1.8v12.2h-2.4V0H57c1.2 0 2.2.4 3 1.2.8.8 1.3 1.8 1.3 3v6.3c0 1.2-.4 2.2-1.3 3 .9.8 1.3 1.8 1.3 3v10.3z"/><polygon id="Fill-27" class="st0" points="74.8,0 71,26.8 68.2,26.8 64.4,0 66.9,0 69.6,17.8 72.2,0"/><path id="Fill-28" class="st0" d="M82.4 17.3L81.2 9 80 17.3h2.4zm4 9.5h-2.5l-1.1-7.1h-3.2l-1.1 7.1H76L79.8 0h2.8l3.8 26.8z"/><polygon id="Fill-29" class="st0" points="95.9,2.4 93.1,2.4 93.1,26.8 90.7,26.8 90.7,2.4 87.6,2.4 87.6,0 95.9,0"/><path id="Fill-30" class="st0" d="M105.1 22.7V4.2c0-.5-.2-.9-.5-1.3-.4-.4-.8-.5-1.3-.5s-.9.2-1.3.5-.5.8-.5 1.3v18.5c0 .5.2.9.5 1.3.4.4.8.5 1.3.5s.9-.2 1.3-.5c.3-.4.5-.8.5-1.3zm2.4-.1c0 1.2-.4 2.1-1.3 3-.8.8-1.8 1.2-3 1.2s-2.2-.4-3-1.2c-.8-.8-1.3-1.8-1.3-3V4.2c0-1.2.4-2.1 1.3-3 .8-.8 1.8-1.2 3-1.2s2.2.4 3 1.2c.8.8 1.3 1.8 1.3 3v18.4z"/><path id="Fill-31" class="st0" d="M118.6 10.4V4.2c0-.5-.2-.9-.5-1.3-.4-.4-.8-.5-1.3-.5H115v9.8h1.8c.5 0 .9-.2 1.3-.5.3-.3.5-.8.5-1.3zm2.4 16.4h-2.4V16.4c0-.5-.2-.9-.5-1.3-.4-.3-.8-.5-1.3-.5H115v12.2h-2.4V0h4.3c1.2 0 2.2.4 3 1.2.8.8 1.3 1.8 1.3 3v6.3c0 1.2-.4 2.2-1.3 3 .9.8 1.3 1.8 1.3 3v10.3z"/><polygon id="Fill-32" class="st0" points="134.5,0 130.6,13.6 130.6,26.8 128.1,26.8 128.1,13.6 124.1,0 126.9,0 129.3,9.6 131.8,0"/><path id="Fill-33" class="st0" d="M140.2 23.7h.3c.4 0 .7-.1.7-.4 0-.3-.2-.5-.6-.5h-.4v.9zm0 1.8h-.7v-3c.3-.1.7-.1 1.2-.1.6 0 .8.1 1.1.2.2.1.3.4.3.7 0 .3-.3.6-.6.7.3.1.5.3.6.7.1.5.1.6.2.8h-.8c-.1-.1-.1-.4-.2-.7-.1-.3-.2-.5-.6-.5h-.3v1.2zm-1.8-1.6c0 1.4 1 2.4 2.4 2.4 1.3 0 2.3-1.1 2.3-2.4 0-1.4-1-2.4-2.3-2.4-1.4-.1-2.4 1-2.4 2.4zm5.4 0c0 1.7-1.4 3.1-3.1 3.1-1.7 0-3.1-1.4-3.1-3.1 0-1.7 1.4-3 3.1-3 1.8-.1 3.1 1.3 3.1 3z"/></g></svg>